<?xml version="1.0" encoding="utf-8" standalone="no"?>
<!DOCTYPE svg PUBLIC "-//W3C//DTD SVG 1.1//EN"
  "http://www.w3.org/Graphics/SVG/1.1/DTD/svg11.dtd">
<!-- Created with matplotlib (http://matplotlib.org/) -->
<svg height="288pt" version="1.1" viewBox="0 0 432 288" width="432pt" xmlns="http://www.w3.org/2000/svg" xmlns:xlink="http://www.w3.org/1999/xlink">
 <defs>
  <style type="text/css">
*{stroke-linecap:butt;stroke-linejoin:round;}
  </style>
 </defs>
 <g id="figure_1">
  <g id="patch_1">
   <path d="
M0 288
L432 288
L432 0
L0 0
z
" style="fill:#ffffff;"/>
  </g>
  <g id="axes_1">
   <g id="patch_2">
    <path d="
M221.4 224.1
C265.795 224.1 308.378 215.281 339.77 199.585
C371.162 183.889 388.8 162.597 388.8 140.4
C388.8 118.203 371.162 96.9112 339.77 81.2152
C308.378 65.5192 265.795 56.7 221.4 56.7
C177.005 56.7 134.422 65.5192 103.03 81.2152
C71.6383 96.9112 54 118.203 54 140.4
C54 162.597 71.6383 183.889 103.03 199.585
C134.422 215.281 177.005 224.1 221.4 224.1
z
" style="fill:#ffffff;"/>
   </g>
   <g id="patch_3">
    <path clip-path="url(#p99d0a42530)" d="
M170.17 141.723
L171.636 141.721
L173.104 141.719
L174.575 141.717
L176.047 141.716
L177.521 141.714
L178.997 141.712
L180.474 141.711
L181.954 141.709
L183.434 141.708
L184.917 141.707
L186.4 141.706
L187.886 141.704
L189.372 141.703
L190.86 141.702
L192.349 141.701
L193.839 141.7
L195.33 141.699
L196.823 141.698
L198.316 141.697
L199.81 141.697
L201.306 141.696
L202.802 141.695
L204.298 141.695
L205.796 141.694
L207.294 141.693
L208.792 141.693
L210.291 141.693
L211.791 141.692
L213.291 141.692
L214.791 141.692
L216.292 141.691
L217.792 141.691
L219.293 141.691
L220.794 141.691
L222.295 141.691
L223.796 141.691
L225.297 141.691
L226.798 141.692
L228.298 141.692
L229.798 141.692
L231.298 141.692
L232.798 141.693
L234.297 141.693
L235.795 141.694
L237.293 141.694
L238.79 141.695
L240.287 141.695
L241.783 141.696
L243.278 141.697
L244.772 141.698
L246.265 141.698
L247.757 141.699
L249.248 141.7
L250.738 141.701
L252.227 141.702
L253.714 141.703
L255.201 141.705
L256.686 141.706
L258.169 141.707
L259.651 141.708
L261.132 141.71
L262.61 141.711
L264.088 141.713
L265.563 141.714
L267.037 141.716
L268.509 141.718
L269.979 141.719
L271.447 141.721
L272.913 141.723
L274.377 141.725
L275.839 141.727
L277.298 141.729
L278.756 141.731
L280.211 141.733
L281.663 141.735
L281.664 141.7
L281.664 141.664
L281.665 141.628
L281.666 141.593
L281.666 141.557
L281.667 141.522
L281.667 141.486
L281.667 141.45
L281.668 141.415
L281.668 141.379
L281.669 141.344
L281.669 141.308
L281.67 141.272
L281.67 141.237
L281.67 141.201
L281.671 141.166
L281.671 141.13
L281.671 141.094
L281.672 141.059
L281.672 141.023
L281.672 140.987
L281.672 140.952
L281.673 140.916
L281.673 140.881
L281.673 140.845
L281.673 140.809
L281.673 140.774
L281.674 140.738
L281.674 140.703
L281.674 140.667
L281.674 140.631
L281.674 140.596
L281.674 140.56
L281.674 140.525
L281.674 140.489
L281.674 140.453
L281.674 140.418
L281.674 140.382
L281.674 140.347
L281.674 140.311
L281.674 140.275
L281.674 140.24
L281.674 140.204
L281.674 140.169
L281.674 140.133
L281.674 140.097
L281.674 140.062
L281.673 140.026
L281.673 139.991
L281.673 139.955
L281.673 139.919
L281.673 139.884
L281.672 139.848
L281.672 139.813
L281.672 139.777
L281.672 139.741
L281.671 139.706
L281.671 139.67
L281.671 139.634
L281.67 139.599
L281.67 139.563
L281.67 139.528
L281.669 139.492
L281.669 139.456
L281.668 139.421
L281.668 139.385
L281.667 139.35
L281.667 139.314
L281.667 139.278
L281.666 139.243
L281.666 139.207
L281.665 139.172
L281.664 139.136
L281.664 139.1
L281.663 139.065
L280.211 139.067
L278.756 139.069
L277.298 139.071
L275.839 139.073
L274.377 139.075
L272.913 139.077
L271.447 139.079
L269.979 139.081
L268.509 139.082
L267.037 139.084
L265.563 139.086
L264.088 139.087
L262.61 139.089
L261.132 139.09
L259.651 139.092
L258.169 139.093
L256.686 139.094
L255.201 139.095
L253.714 139.097
L252.227 139.098
L250.738 139.099
L249.248 139.1
L247.757 139.101
L246.265 139.102
L244.772 139.102
L243.278 139.103
L241.783 139.104
L240.287 139.105
L238.79 139.105
L237.293 139.106
L235.795 139.106
L234.297 139.107
L232.798 139.107
L231.298 139.108
L229.798 139.108
L228.298 139.108
L226.798 139.108
L225.297 139.109
L223.796 139.109
L222.295 139.109
L220.794 139.109
L219.293 139.109
L217.792 139.109
L216.292 139.109
L214.791 139.108
L213.291 139.108
L211.791 139.108
L210.291 139.107
L208.792 139.107
L207.294 139.107
L205.796 139.106
L204.298 139.105
L202.802 139.105
L201.306 139.104
L199.81 139.103
L198.316 139.103
L196.823 139.102
L195.33 139.101
L193.839 139.1
L192.349 139.099
L190.86 139.098
L189.372 139.097
L187.886 139.096
L186.4 139.094
L184.917 139.093
L183.434 139.092
L181.954 139.091
L180.474 139.089
L178.997 139.088
L177.521 139.086
L176.047 139.084
L174.575 139.083
L173.104 139.081
L171.636 139.079
L170.17 139.077
L170.169 139.113
L170.169 139.148
L170.168 139.183
L170.168 139.219
L170.167 139.254
L170.167 139.289
L170.166 139.324
L170.166 139.36
L170.166 139.395
L170.165 139.43
L170.165 139.465
L170.165 139.501
L170.164 139.536
L170.164 139.571
L170.164 139.606
L170.163 139.642
L170.163 139.677
L170.163 139.712
L170.162 139.748
L170.162 139.783
L170.162 139.818
L170.162 139.853
L170.162 139.889
L170.161 139.924
L170.161 139.959
L170.161 139.994
L170.161 140.03
L170.161 140.065
L170.161 140.1
L170.161 140.135
L170.161 140.171
L170.16 140.206
L170.16 140.241
L170.16 140.277
L170.16 140.312
L170.16 140.347
L170.16 140.382
L170.16 140.418
L170.16 140.453
L170.16 140.488
L170.16 140.523
L170.16 140.559
L170.16 140.594
L170.161 140.629
L170.161 140.665
L170.161 140.7
L170.161 140.735
L170.161 140.77
L170.161 140.806
L170.161 140.841
L170.161 140.876
L170.162 140.911
L170.162 140.947
L170.162 140.982
L170.162 141.017
L170.162 141.052
L170.163 141.088
L170.163 141.123
L170.163 141.158
L170.164 141.194
L170.164 141.229
L170.164 141.264
L170.165 141.299
L170.165 141.335
L170.165 141.37
L170.166 141.405
L170.166 141.44
L170.166 141.476
L170.167 141.511
L170.167 141.546
L170.168 141.581
L170.168 141.617
L170.169 141.652
L170.169 141.687
z
" style="fill:#ffa500;stroke:#000000;stroke-linejoin:miter;stroke-width:0.1;"/>
   </g>
   <g id="patch_4">
    <path d="
M221.4 224.1
C265.795 224.1 308.378 215.281 339.77 199.585
C371.162 183.889 388.8 162.597 388.8 140.4
C388.8 118.203 371.162 96.9112 339.77 81.2152
C308.378 65.5192 265.795 56.7 221.4 56.7
C177.005 56.7 134.422 65.5192 103.03 81.2152
C71.6383 96.9112 54 118.203 54 140.4
C54 162.597 71.6383 183.889 103.03 199.585
C134.422 215.281 177.005 224.1 221.4 224.1
L221.4 224.1" style="fill:none;stroke:#000000;stroke-linecap:square;stroke-linejoin:miter;"/>
   </g>
   <g id="matplotlib.axis_1">
    <g id="xtick_1">
     <g id="line2d_1">
      <path clip-path="url(#p99d0a42530)" d="
M180.885 218.669
L175.818 217.576
L170.844 216.403
L165.967 215.151
L161.191 213.823
L156.521 212.421
L151.958 210.948
L147.507 209.404
L143.171 207.794
L138.953 206.118
L134.857 204.378
L130.883 202.578
L127.037 200.72
L123.319 198.805
L119.732 196.836
L116.279 194.815
L112.962 192.744
L109.782 190.625
L106.742 188.462
L103.843 186.255
L101.088 184.008
L98.4768 181.722
L96.0121 179.399
L93.695 177.043
L91.5267 174.654
L89.5084 172.236
L87.6413 169.79
L85.9263 167.319
L84.3643 164.825
L82.9562 162.31
L81.7027 159.776
L80.6045 157.226
L79.6621 154.661
L78.876 152.085
L78.2467 149.499
L77.7744 146.904
L77.4594 144.305
L77.3019 141.702
L77.3019 139.098
L77.4594 136.495
L77.7744 133.896
L78.2467 131.301
L78.876 128.715
L79.6621 126.139
L80.6045 123.574
L81.7027 121.024
L82.9562 118.49
L84.3643 115.975
L85.9263 113.481
L87.6413 111.01
L89.5084 108.564
L91.5267 106.146
L93.695 103.757
L96.0121 101.401
L98.4768 99.0784
L101.088 96.7923
L103.843 94.5448
L106.742 92.3382
L109.782 90.1745
L112.962 88.0562
L116.279 85.9854
L119.732 83.9642
L123.319 81.9951
L127.037 80.0801
L130.883 78.2215
L134.857 76.4216
L138.953 74.6825
L143.171 73.0065
L147.507 71.3957
L151.958 69.8524
L156.521 68.3787
L161.191 66.9769
L165.967 65.6491
L170.844 64.3975
L175.818 63.2241
L180.885 62.131" style="fill:none;stroke:#000000;stroke-dasharray:1.000000,3.000000;stroke-dashoffset:0.0;stroke-width:0.5;"/>
     </g>
     <g id="text_1">
      <!-- -150° -->
      <defs>
       <path d="
M25 67.9219
Q21.0938 67.9219 18.4062 65.2031
Q15.7188 62.5 15.7188 58.5938
Q15.7188 54.7344 18.4062 52.0781
Q21.0938 49.4219 25 49.4219
Q28.9062 49.4219 31.5938 52.0781
Q34.2812 54.7344 34.2812 58.5938
Q34.2812 62.4531 31.5625 65.1875
Q28.8594 67.9219 25 67.9219
M25 74.2188
Q28.125 74.2188 31 73.0156
Q33.8906 71.8281 35.9844 69.5781
Q38.2344 67.3906 39.3594 64.5938
Q40.4844 61.8125 40.4844 58.5938
Q40.4844 52.1562 35.9688 47.6875
Q31.4531 43.2188 24.9062 43.2188
Q18.3125 43.2188 13.9062 47.6094
Q9.51562 52 9.51562 58.5938
Q9.51562 65.1406 14 69.6719
Q18.5 74.2188 25 74.2188" id="BitstreamVeraSans-Roman-b0"/>
       <path d="
M31.7812 66.4062
Q24.1719 66.4062 20.3281 58.9062
Q16.5 51.4219 16.5 36.375
Q16.5 21.3906 20.3281 13.8906
Q24.1719 6.39062 31.7812 6.39062
Q39.4531 6.39062 43.2812 13.8906
Q47.125 21.3906 47.125 36.375
Q47.125 51.4219 43.2812 58.9062
Q39.4531 66.4062 31.7812 66.4062
M31.7812 74.2188
Q44.0469 74.2188 50.5156 64.5156
Q56.9844 54.8281 56.9844 36.375
Q56.9844 17.9688 50.5156 8.26562
Q44.0469 -1.42188 31.7812 -1.42188
Q19.5312 -1.42188 13.0625 8.26562
Q6.59375 17.9688 6.59375 36.375
Q6.59375 54.8281 13.0625 64.5156
Q19.5312 74.2188 31.7812 74.2188" id="BitstreamVeraSans-Roman-30"/>
       <path d="
M12.4062 8.29688
L28.5156 8.29688
L28.5156 63.9219
L10.9844 60.4062
L10.9844 69.3906
L28.4219 72.9062
L38.2812 72.9062
L38.2812 8.29688
L54.3906 8.29688
L54.3906 0
L12.4062 0
z
" id="BitstreamVeraSans-Roman-31"/>
       <path d="
M4.89062 31.3906
L31.2031 31.3906
L31.2031 23.3906
L4.89062 23.3906
z
" id="BitstreamVeraSans-Roman-2d"/>
       <path d="
M10.7969 72.9062
L49.5156 72.9062
L49.5156 64.5938
L19.8281 64.5938
L19.8281 46.7344
Q21.9688 47.4688 24.1094 47.8281
Q26.2656 48.1875 28.4219 48.1875
Q40.625 48.1875 47.75 41.5
Q54.8906 34.8125 54.8906 23.3906
Q54.8906 11.625 47.5625 5.09375
Q40.2344 -1.42188 26.9062 -1.42188
Q22.3125 -1.42188 17.5469 -0.640625
Q12.7969 0.140625 7.71875 1.70312
L7.71875 11.625
Q12.1094 9.23438 16.7969 8.0625
Q21.4844 6.89062 26.7031 6.89062
Q35.1562 6.89062 40.0781 11.3281
Q45.0156 15.7656 45.0156 23.3906
Q45.0156 31 40.0781 35.4375
Q35.1562 39.8906 26.7031 39.8906
Q22.75 39.8906 18.8125 39.0156
Q14.8906 38.1406 10.7969 36.2812
z
" id="BitstreamVeraSans-Roman-35"/>
      </defs>
      <g transform="translate(64.1548710337 134.3203125)scale(0.1 -0.1)">
       <use xlink:href="#BitstreamVeraSans-Roman-2d"/>
       <use x="36.083984375" xlink:href="#BitstreamVeraSans-Roman-31"/>
       <use x="99.70703125" xlink:href="#BitstreamVeraSans-Roman-35"/>
       <use x="163.330078125" xlink:href="#BitstreamVeraSans-Roman-30"/>
       <use x="226.953125" xlink:href="#BitstreamVeraSans-Roman-b0"/>
      </g>
     </g>
    </g>
    <g id="xtick_2">
     <g id="line2d_2">
      <path clip-path="url(#p99d0a42530)" d="
M186.093 216.475
L181.809 215.164
L177.63 213.792
L173.556 212.359
L169.59 210.869
L165.732 209.325
L161.983 207.726
L158.344 206.077
L154.816 204.378
L151.4 202.633
L148.097 200.842
L144.906 199.007
L141.83 197.131
L138.867 195.215
L136.02 193.261
L133.288 191.271
L130.672 189.247
L128.173 187.189
L125.79 185.101
L123.524 182.982
L121.376 180.836
L119.345 178.664
L117.432 176.467
L115.638 174.247
L113.962 172.006
L112.405 169.744
L110.967 167.464
L109.648 165.167
L108.449 162.854
L107.369 160.528
L106.409 158.189
L105.568 155.839
L104.848 153.48
L104.247 151.113
L103.766 148.739
L103.406 146.36
L103.166 143.977
L103.045 141.593
L103.045 139.207
L103.166 136.823
L103.406 134.44
L103.766 132.061
L104.247 129.687
L104.848 127.32
L105.568 124.961
L106.409 122.611
L107.369 120.272
L108.449 117.946
L109.648 115.633
L110.967 113.336
L112.405 111.056
L113.962 108.794
L115.638 106.553
L117.432 104.333
L119.345 102.136
L121.376 99.9636
L123.524 97.8176
L125.79 95.6994
L128.173 93.6108
L130.672 91.5533
L133.288 89.5287
L136.02 87.5386
L138.867 85.5847
L141.83 83.6689
L144.906 81.7928
L148.097 79.9583
L151.4 78.1673
L154.816 76.4215
L158.344 74.723
L161.983 73.0737
L165.732 71.4755
L169.59 69.9305
L173.556 68.4408
L177.63 67.0085
L181.809 65.6357
L186.093 64.3247" style="fill:none;stroke:#000000;stroke-dasharray:1.000000,3.000000;stroke-dashoffset:0.0;stroke-width:0.5;"/>
     </g>
     <g id="text_2">
      <!-- -120° -->
      <defs>
       <path d="
M19.1875 8.29688
L53.6094 8.29688
L53.6094 0
L7.32812 0
L7.32812 8.29688
Q12.9375 14.1094 22.625 23.8906
Q32.3281 33.6875 34.8125 36.5312
Q39.5469 41.8438 41.4219 45.5312
Q43.3125 49.2188 43.3125 52.7812
Q43.3125 58.5938 39.2344 62.25
Q35.1562 65.9219 28.6094 65.9219
Q23.9688 65.9219 18.8125 64.3125
Q13.6719 62.7031 7.8125 59.4219
L7.8125 69.3906
Q13.7656 71.7812 18.9375 73
Q24.125 74.2188 28.4219 74.2188
Q39.75 74.2188 46.4844 68.5469
Q53.2188 62.8906 53.2188 53.4219
Q53.2188 48.9219 51.5312 44.8906
Q49.8594 40.875 45.4062 35.4062
Q44.1875 33.9844 37.6406 27.2188
Q31.1094 20.4531 19.1875 8.29688" id="BitstreamVeraSans-Roman-32"/>
      </defs>
      <g transform="translate(89.9029810794 134.3203125)scale(0.1 -0.1)">
       <use xlink:href="#BitstreamVeraSans-Roman-2d"/>
       <use x="36.083984375" xlink:href="#BitstreamVeraSans-Roman-31"/>
       <use x="99.70703125" xlink:href="#BitstreamVeraSans-Roman-32"/>
       <use x="163.330078125" xlink:href="#BitstreamVeraSans-Roman-30"/>
       <use x="226.953125" xlink:href="#BitstreamVeraSans-Roman-b0"/>
      </g>
     </g>
    </g>
    <g id="xtick_3">
     <g id="line2d_3">
      <path clip-path="url(#p99d0a42530)" d="
M193.233 214.732
L189.896 213.264
L186.655 211.752
L183.51 210.196
L180.46 208.599
L177.505 206.962
L174.645 205.286
L171.877 203.574
L169.203 201.826
L166.622 200.045
L164.133 198.231
L161.736 196.386
L159.43 194.512
L157.216 192.609
L155.092 190.68
L153.059 188.724
L151.116 186.744
L149.263 184.741
L147.5 182.715
L145.826 180.669
L144.242 178.603
L142.746 176.518
L141.339 174.416
L140.021 172.297
L138.792 170.163
L137.651 168.015
L136.598 165.853
L135.633 163.68
L134.756 161.496
L133.968 159.302
L133.267 157.099
L132.653 154.888
L132.128 152.67
L131.69 150.447
L131.34 148.219
L131.077 145.988
L130.902 143.754
L130.815 141.518
L130.815 139.282
L130.902 137.046
L131.077 134.812
L131.34 132.581
L131.69 130.353
L132.128 128.13
L132.653 125.912
L133.267 123.701
L133.968 121.498
L134.756 119.304
L135.633 117.12
L136.598 114.947
L137.651 112.785
L138.792 110.637
L140.021 108.503
L141.339 106.384
L142.746 104.282
L144.242 102.197
L145.826 100.131
L147.5 98.0846
L149.263 96.0592
L151.116 94.0558
L153.059 92.0758
L155.092 90.1203
L157.216 88.1906
L159.43 86.2879
L161.736 84.4135
L164.133 82.5688
L166.622 80.7551
L169.203 78.9737
L171.877 77.2262
L174.645 75.5139
L177.505 73.8384
L180.46 72.2011
L183.51 70.6038
L186.655 69.0481
L189.896 67.5356
L193.233 66.0682" style="fill:none;stroke:#000000;stroke-dasharray:1.000000,3.000000;stroke-dashoffset:0.0;stroke-width:0.5;"/>
     </g>
     <g id="text_3">
      <!-- -90° -->
      <defs>
       <path d="
M10.9844 1.51562
L10.9844 10.5
Q14.7031 8.73438 18.5 7.8125
Q22.3125 6.89062 25.9844 6.89062
Q35.75 6.89062 40.8906 13.4531
Q46.0469 20.0156 46.7812 33.4062
Q43.9531 29.2031 39.5938 26.9531
Q35.25 24.7031 29.9844 24.7031
Q19.0469 24.7031 12.6719 31.3125
Q6.29688 37.9375 6.29688 49.4219
Q6.29688 60.6406 12.9375 67.4219
Q19.5781 74.2188 30.6094 74.2188
Q43.2656 74.2188 49.9219 64.5156
Q56.5938 54.8281 56.5938 36.375
Q56.5938 19.1406 48.4062 8.85938
Q40.2344 -1.42188 26.4219 -1.42188
Q22.7031 -1.42188 18.8906 -0.6875
Q15.0938 0.046875 10.9844 1.51562
M30.6094 32.4219
Q37.25 32.4219 41.125 36.9531
Q45.0156 41.5 45.0156 49.4219
Q45.0156 57.2812 41.125 61.8438
Q37.25 66.4062 30.6094 66.4062
Q23.9688 66.4062 20.0938 61.8438
Q16.2188 57.2812 16.2188 49.4219
Q16.2188 41.5 20.0938 36.9531
Q23.9688 32.4219 30.6094 32.4219" id="BitstreamVeraSans-Roman-39"/>
      </defs>
      <g transform="translate(120.857679086 134.3203125)scale(0.1 -0.1)">
       <use xlink:href="#BitstreamVeraSans-Roman-2d"/>
       <use x="36.083984375" xlink:href="#BitstreamVeraSans-Roman-39"/>
       <use x="99.70703125" xlink:href="#BitstreamVeraSans-Roman-30"/>
       <use x="163.330078125" xlink:href="#BitstreamVeraSans-Roman-b0"/>
      </g>
     </g>
    </g>
    <g id="xtick_4">
     <g id="line2d_4">
      <path clip-path="url(#p99d0a42530)" d="
M201.82 213.472
L199.54 211.901
L197.332 210.297
L195.196 208.663
L193.131 206.998
L191.134 205.305
L189.206 203.584
L187.346 201.836
L185.551 200.063
L183.822 198.264
L182.159 196.443
L180.559 194.598
L179.023 192.731
L177.55 190.844
L176.139 188.937
L174.79 187.01
L173.503 185.065
L172.276 183.103
L171.111 181.124
L170.005 179.129
L168.959 177.119
L167.973 175.096
L167.047 173.059
L166.179 171.009
L165.37 168.949
L164.62 166.877
L163.928 164.795
L163.294 162.705
L162.719 160.606
L162.201 158.499
L161.742 156.385
L161.339 154.266
L160.995 152.142
L160.708 150.013
L160.479 147.88
L160.307 145.745
L160.192 143.608
L160.135 141.469
L160.135 139.331
L160.192 137.192
L160.307 135.055
L160.479 132.92
L160.708 130.787
L160.995 128.658
L161.339 126.534
L161.742 124.415
L162.201 122.301
L162.719 120.194
L163.294 118.095
L163.928 116.005
L164.62 113.923
L165.37 111.851
L166.179 109.791
L167.047 107.741
L167.973 105.704
L168.959 103.681
L170.005 101.671
L171.111 99.6764
L172.276 97.6975
L173.503 95.7351
L174.79 93.7901
L176.139 91.8635
L177.55 89.956
L179.023 88.0686
L180.559 86.2021
L182.159 84.3574
L183.822 82.5356
L185.551 80.7375
L187.346 78.9641
L189.206 77.2164
L191.134 75.4953
L193.131 73.802
L195.196 72.1374
L197.332 70.5028
L199.54 68.8991
L201.82 67.3277" style="fill:none;stroke:#000000;stroke-dasharray:1.000000,3.000000;stroke-dashoffset:0.0;stroke-width:0.5;"/>
     </g>
     <g id="text_4">
      <!-- -60° -->
      <defs>
       <path d="
M33.0156 40.375
Q26.375 40.375 22.4844 35.8281
Q18.6094 31.2969 18.6094 23.3906
Q18.6094 15.5312 22.4844 10.9531
Q26.375 6.39062 33.0156 6.39062
Q39.6562 6.39062 43.5312 10.9531
Q47.4062 15.5312 47.4062 23.3906
Q47.4062 31.2969 43.5312 35.8281
Q39.6562 40.375 33.0156 40.375
M52.5938 71.2969
L52.5938 62.3125
Q48.875 64.0625 45.0938 64.9844
Q41.3125 65.9219 37.5938 65.9219
Q27.8281 65.9219 22.6719 59.3281
Q17.5312 52.7344 16.7969 39.4062
Q19.6719 43.6562 24.0156 45.9219
Q28.375 48.1875 33.5938 48.1875
Q44.5781 48.1875 50.9531 41.5156
Q57.3281 34.8594 57.3281 23.3906
Q57.3281 12.1562 50.6875 5.35938
Q44.0469 -1.42188 33.0156 -1.42188
Q20.3594 -1.42188 13.6719 8.26562
Q6.98438 17.9688 6.98438 36.375
Q6.98438 53.6562 15.1875 63.9375
Q23.3906 74.2188 37.2031 74.2188
Q40.9219 74.2188 44.7031 73.4844
Q48.4844 72.75 52.5938 71.2969" id="BitstreamVeraSans-Roman-36"/>
      </defs>
      <g transform="translate(150.181253656 134.3203125)scale(0.1 -0.1)">
       <use xlink:href="#BitstreamVeraSans-Roman-2d"/>
       <use x="36.083984375" xlink:href="#BitstreamVeraSans-Roman-36"/>
       <use x="99.70703125" xlink:href="#BitstreamVeraSans-Roman-30"/>
       <use x="163.330078125" xlink:href="#BitstreamVeraSans-Roman-b0"/>
      </g>
     </g>
    </g>
    <g id="xtick_5">
     <g id="line2d_5">
      <path clip-path="url(#p99d0a42530)" d="
M211.37 212.713
L210.214 211.082
L209.097 209.427
L208.018 207.749
L206.976 206.048
L205.97 204.324
L205 202.58
L204.065 200.814
L203.165 199.029
L202.298 197.224
L201.465 195.4
L200.665 193.558
L199.897 191.698
L199.161 189.822
L198.457 187.929
L197.785 186.021
L197.143 184.098
L196.532 182.161
L195.952 180.21
L195.402 178.247
L194.882 176.271
L194.392 174.283
L193.932 172.285
L193.501 170.276
L193.099 168.257
L192.727 166.23
L192.383 164.194
L192.069 162.151
L191.784 160.1
L191.527 158.044
L191.299 155.981
L191.1 153.914
L190.929 151.842
L190.787 149.767
L190.673 147.688
L190.588 145.608
L190.531 143.525
L190.503 141.442
L190.503 139.358
L190.531 137.275
L190.588 135.192
L190.673 133.112
L190.787 131.033
L190.929 128.958
L191.1 126.886
L191.299 124.819
L191.527 122.756
L191.784 120.7
L192.069 118.649
L192.383 116.606
L192.727 114.57
L193.099 112.543
L193.501 110.524
L193.932 108.515
L194.392 106.517
L194.882 104.529
L195.402 102.553
L195.952 100.59
L196.532 98.6389
L197.143 96.7017
L197.785 94.7788
L198.457 92.8707
L199.161 90.9782
L199.897 89.1019
L200.665 87.2424
L201.465 85.4003
L202.298 83.5765
L203.165 81.7714
L204.065 79.9858
L205 78.2204
L205.97 76.4757
L206.976 74.7524
L208.018 73.0513
L209.097 71.3729
L210.214 69.7181
L211.37 68.0874" style="fill:none;stroke:#000000;stroke-dasharray:1.000000,3.000000;stroke-dashoffset:0.0;stroke-width:0.5;"/>
     </g>
     <g id="text_5">
      <!-- -30° -->
      <defs>
       <path d="
M40.5781 39.3125
Q47.6562 37.7969 51.625 33
Q55.6094 28.2188 55.6094 21.1875
Q55.6094 10.4062 48.1875 4.48438
Q40.7656 -1.42188 27.0938 -1.42188
Q22.5156 -1.42188 17.6562 -0.515625
Q12.7969 0.390625 7.625 2.20312
L7.625 11.7188
Q11.7188 9.32812 16.5938 8.10938
Q21.4844 6.89062 26.8125 6.89062
Q36.0781 6.89062 40.9375 10.5469
Q45.7969 14.2031 45.7969 21.1875
Q45.7969 27.6406 41.2812 31.2656
Q36.7656 34.9062 28.7188 34.9062
L20.2188 34.9062
L20.2188 43.0156
L29.1094 43.0156
Q36.375 43.0156 40.2344 45.9219
Q44.0938 48.8281 44.0938 54.2969
Q44.0938 59.9062 40.1094 62.9062
Q36.1406 65.9219 28.7188 65.9219
Q24.6562 65.9219 20.0156 65.0312
Q15.375 64.1562 9.8125 62.3125
L9.8125 71.0938
Q15.4375 72.6562 20.3438 73.4375
Q25.25 74.2188 29.5938 74.2188
Q40.8281 74.2188 47.3594 69.1094
Q53.9062 64.0156 53.9062 55.3281
Q53.9062 49.2656 50.4375 45.0938
Q46.9688 40.9219 40.5781 39.3125" id="BitstreamVeraSans-Roman-33"/>
      </defs>
      <g transform="translate(180.553220301 134.3203125)scale(0.1 -0.1)">
       <use xlink:href="#BitstreamVeraSans-Roman-2d"/>
       <use x="36.083984375" xlink:href="#BitstreamVeraSans-Roman-33"/>
       <use x="99.70703125" xlink:href="#BitstreamVeraSans-Roman-30"/>
       <use x="163.330078125" xlink:href="#BitstreamVeraSans-Roman-b0"/>
      </g>
     </g>
    </g>
    <g id="xtick_6">
     <g id="line2d_6">
      <path clip-path="url(#p99d0a42530)" d="
M221.4 212.459
L221.4 210.809
L221.4 209.138
L221.4 207.445
L221.4 205.733
L221.4 204
L221.4 202.248
L221.4 200.477
L221.4 198.688
L221.4 196.881
L221.4 195.057
L221.4 193.216
L221.4 191.359
L221.4 189.487
L221.4 187.6
L221.4 185.698
L221.4 183.783
L221.4 181.854
L221.4 179.913
L221.4 177.959
L221.4 175.994
L221.4 174.019
L221.4 172.033
L221.4 170.037
L221.4 168.033
L221.4 166.02
L221.4 163.999
L221.4 161.971
L221.4 159.937
L221.4 157.896
L221.4 155.85
L221.4 153.8
L221.4 151.745
L221.4 149.687
L221.4 147.626
L221.4 145.563
L221.4 143.499
L221.4 141.433
L221.4 139.367
L221.4 137.301
L221.4 135.237
L221.4 133.174
L221.4 131.113
L221.4 129.055
L221.4 127
L221.4 124.95
L221.4 122.904
L221.4 120.863
L221.4 118.829
L221.4 116.801
L221.4 114.78
L221.4 112.767
L221.4 110.763
L221.4 108.767
L221.4 106.781
L221.4 104.806
L221.4 102.841
L221.4 100.887
L221.4 98.9461
L221.4 97.0174
L221.4 95.1019
L221.4 93.2002
L221.4 91.3129
L221.4 89.4405
L221.4 87.5837
L221.4 85.743
L221.4 83.9189
L221.4 82.112
L221.4 80.3228
L221.4 78.552
L221.4 76.8
L221.4 75.0674
L221.4 73.3547
L221.4 71.6624
L221.4 69.991
L221.4 68.3411" style="fill:none;stroke:#000000;stroke-dasharray:1.000000,3.000000;stroke-dashoffset:0.0;stroke-width:0.5;"/>
     </g>
     <g id="text_6">
      <!-- 0° -->
      <g transform="translate(216.52421875 134.3203125)scale(0.1 -0.1)">
       <use xlink:href="#BitstreamVeraSans-Roman-30"/>
       <use x="63.623046875" xlink:href="#BitstreamVeraSans-Roman-b0"/>
      </g>
     </g>
    </g>
    <g id="xtick_7">
     <g id="line2d_7">
      <path clip-path="url(#p99d0a42530)" d="
M231.43 212.713
L232.586 211.082
L233.703 209.427
L234.782 207.749
L235.824 206.048
L236.83 204.324
L237.8 202.58
L238.735 200.814
L239.635 199.029
L240.502 197.224
L241.335 195.4
L242.135 193.558
L242.903 191.698
L243.639 189.822
L244.343 187.929
L245.015 186.021
L245.657 184.098
L246.268 182.161
L246.848 180.21
L247.398 178.247
L247.918 176.271
L248.408 174.283
L248.868 172.285
L249.299 170.276
L249.701 168.257
L250.073 166.23
L250.417 164.194
L250.731 162.151
L251.016 160.1
L251.273 158.044
L251.501 155.981
L251.7 153.914
L251.871 151.842
L252.013 149.767
L252.127 147.688
L252.212 145.608
L252.269 143.525
L252.297 141.442
L252.297 139.358
L252.269 137.275
L252.212 135.192
L252.127 133.112
L252.013 131.033
L251.871 128.958
L251.7 126.886
L251.501 124.819
L251.273 122.756
L251.016 120.7
L250.731 118.649
L250.417 116.606
L250.073 114.57
L249.701 112.543
L249.299 110.524
L248.868 108.515
L248.408 106.517
L247.918 104.529
L247.398 102.553
L246.848 100.59
L246.268 98.6389
L245.657 96.7017
L245.015 94.7788
L244.343 92.8707
L243.639 90.9782
L242.903 89.1019
L242.135 87.2424
L241.335 85.4003
L240.502 83.5765
L239.635 81.7714
L238.735 79.9858
L237.8 78.2204
L236.83 76.4757
L235.824 74.7524
L234.782 73.0513
L233.703 71.3729
L232.586 69.7181
L231.43 68.0874" style="fill:none;stroke:#000000;stroke-dasharray:1.000000,3.000000;stroke-dashoffset:0.0;stroke-width:0.5;"/>
     </g>
     <g id="text_7">
      <!-- 30° -->
      <g transform="translate(244.295217199 134.3203125)scale(0.1 -0.1)">
       <use xlink:href="#BitstreamVeraSans-Roman-33"/>
       <use x="63.623046875" xlink:href="#BitstreamVeraSans-Roman-30"/>
       <use x="127.24609375" xlink:href="#BitstreamVeraSans-Roman-b0"/>
      </g>
     </g>
    </g>
    <g id="xtick_8">
     <g id="line2d_8">
      <path clip-path="url(#p99d0a42530)" d="
M240.98 213.472
L243.26 211.901
L245.468 210.297
L247.604 208.663
L249.669 206.998
L251.666 205.305
L253.594 203.584
L255.454 201.836
L257.249 200.063
L258.978 198.264
L260.641 196.443
L262.241 194.598
L263.777 192.731
L265.25 190.844
L266.661 188.937
L268.01 187.01
L269.297 185.065
L270.524 183.103
L271.689 181.124
L272.795 179.129
L273.841 177.119
L274.827 175.096
L275.753 173.059
L276.621 171.009
L277.43 168.949
L278.18 166.877
L278.872 164.795
L279.506 162.705
L280.081 160.606
L280.599 158.499
L281.058 156.385
L281.461 154.266
L281.805 152.142
L282.092 150.013
L282.321 147.88
L282.493 145.745
L282.608 143.608
L282.665 141.469
L282.665 139.331
L282.608 137.192
L282.493 135.055
L282.321 132.92
L282.092 130.787
L281.805 128.658
L281.461 126.534
L281.058 124.415
L280.599 122.301
L280.081 120.194
L279.506 118.095
L278.872 116.005
L278.18 113.923
L277.43 111.851
L276.621 109.791
L275.753 107.741
L274.827 105.704
L273.841 103.681
L272.795 101.671
L271.689 99.6764
L270.524 97.6975
L269.297 95.7351
L268.01 93.7901
L266.661 91.8635
L265.25 89.956
L263.777 88.0686
L262.241 86.2021
L260.641 84.3574
L258.978 82.5356
L257.249 80.7375
L255.454 78.9641
L253.594 77.2164
L251.666 75.4953
L249.669 73.802
L247.604 72.1374
L245.468 70.5028
L243.26 68.8991
L240.98 67.3277" style="fill:none;stroke:#000000;stroke-dasharray:1.000000,3.000000;stroke-dashoffset:0.0;stroke-width:0.5;"/>
     </g>
     <g id="text_8">
      <!-- 60° -->
      <g transform="translate(274.635152594 134.3203125)scale(0.1 -0.1)">
       <use xlink:href="#BitstreamVeraSans-Roman-36"/>
       <use x="63.623046875" xlink:href="#BitstreamVeraSans-Roman-30"/>
       <use x="127.24609375" xlink:href="#BitstreamVeraSans-Roman-b0"/>
      </g>
     </g>
    </g>
    <g id="xtick_9">
     <g id="line2d_9">
      <path clip-path="url(#p99d0a42530)" d="
M249.567 214.732
L252.904 213.264
L256.145 211.752
L259.29 210.196
L262.34 208.599
L265.295 206.962
L268.155 205.286
L270.923 203.574
L273.597 201.826
L276.178 200.045
L278.667 198.231
L281.064 196.386
L283.37 194.512
L285.584 192.609
L287.708 190.68
L289.741 188.724
L291.684 186.744
L293.537 184.741
L295.3 182.715
L296.974 180.669
L298.558 178.603
L300.054 176.518
L301.461 174.416
L302.779 172.297
L304.008 170.163
L305.149 168.015
L306.202 165.853
L307.167 163.68
L308.044 161.496
L308.832 159.302
L309.533 157.099
L310.147 154.888
L310.672 152.67
L311.11 150.447
L311.46 148.219
L311.723 145.988
L311.898 143.754
L311.985 141.518
L311.985 139.282
L311.898 137.046
L311.723 134.812
L311.46 132.581
L311.11 130.353
L310.672 128.13
L310.147 125.912
L309.533 123.701
L308.832 121.498
L308.044 119.304
L307.167 117.12
L306.202 114.947
L305.149 112.785
L304.008 110.637
L302.779 108.503
L301.461 106.384
L300.054 104.282
L298.558 102.197
L296.974 100.131
L295.3 98.0846
L293.537 96.0592
L291.684 94.0558
L289.741 92.0758
L287.708 90.1203
L285.584 88.1906
L283.37 86.2879
L281.064 84.4135
L278.667 82.5688
L276.178 80.7551
L273.597 78.9737
L270.923 77.2262
L268.155 75.5139
L265.295 73.8384
L262.34 72.2011
L259.29 70.6038
L256.145 69.0481
L252.904 67.5356
L249.567 66.0682" style="fill:none;stroke:#000000;stroke-dasharray:1.000000,3.000000;stroke-dashoffset:0.0;stroke-width:0.5;"/>
     </g>
     <g id="text_9">
      <!-- 90° -->
      <g transform="translate(303.924352164 134.3203125)scale(0.1 -0.1)">
       <use xlink:href="#BitstreamVeraSans-Roman-39"/>
       <use x="63.623046875" xlink:href="#BitstreamVeraSans-Roman-30"/>
       <use x="127.24609375" xlink:href="#BitstreamVeraSans-Roman-b0"/>
      </g>
     </g>
    </g>
    <g id="xtick_10">
     <g id="line2d_10">
      <path clip-path="url(#p99d0a42530)" d="
M256.707 216.475
L260.991 215.164
L265.17 213.792
L269.244 212.359
L273.21 210.869
L277.068 209.325
L280.817 207.726
L284.456 206.077
L287.984 204.378
L291.4 202.633
L294.703 200.842
L297.894 199.007
L300.97 197.131
L303.933 195.215
L306.78 193.261
L309.512 191.271
L312.128 189.247
L314.627 187.189
L317.01 185.101
L319.276 182.982
L321.424 180.836
L323.455 178.664
L325.368 176.467
L327.162 174.247
L328.838 172.006
L330.395 169.744
L331.833 167.464
L333.152 165.167
L334.351 162.854
L335.431 160.528
L336.391 158.189
L337.232 155.839
L337.952 153.48
L338.553 151.113
L339.034 148.739
L339.394 146.36
L339.634 143.977
L339.755 141.593
L339.755 139.207
L339.634 136.823
L339.394 134.44
L339.034 132.061
L338.553 129.687
L337.952 127.32
L337.232 124.961
L336.391 122.611
L335.431 120.272
L334.351 117.946
L333.152 115.633
L331.833 113.336
L330.395 111.056
L328.838 108.794
L327.162 106.553
L325.368 104.333
L323.455 102.136
L321.424 99.9636
L319.276 97.8176
L317.01 95.6994
L314.627 93.6108
L312.128 91.5533
L309.512 89.5287
L306.78 87.5386
L303.933 85.5847
L300.97 83.6689
L297.894 81.7928
L294.703 79.9583
L291.4 78.1673
L287.984 76.4215
L284.456 74.723
L280.817 73.0737
L277.068 71.4755
L273.21 69.9305
L269.244 68.4408
L265.17 67.0085
L260.991 65.6357
L256.707 64.3247" style="fill:none;stroke:#000000;stroke-dasharray:1.000000,3.000000;stroke-dashoffset:0.0;stroke-width:0.5;"/>
     </g>
     <g id="text_10">
      <!-- 120° -->
      <g transform="translate(328.750925171 134.3203125)scale(0.1 -0.1)">
       <use xlink:href="#BitstreamVeraSans-Roman-31"/>
       <use x="63.623046875" xlink:href="#BitstreamVeraSans-Roman-32"/>
       <use x="127.24609375" xlink:href="#BitstreamVeraSans-Roman-30"/>
       <use x="190.869140625" xlink:href="#BitstreamVeraSans-Roman-b0"/>
      </g>
     </g>
    </g>
    <g id="xtick_11">
     <g id="line2d_11">
      <path clip-path="url(#p99d0a42530)" d="
M261.915 218.669
L266.982 217.576
L271.956 216.403
L276.833 215.151
L281.609 213.823
L286.279 212.421
L290.842 210.948
L295.293 209.404
L299.629 207.794
L303.847 206.118
L307.943 204.378
L311.917 202.578
L315.763 200.72
L319.481 198.805
L323.068 196.836
L326.521 194.815
L329.838 192.744
L333.018 190.625
L336.058 188.462
L338.957 186.255
L341.712 184.008
L344.323 181.722
L346.788 179.399
L349.105 177.043
L351.273 174.654
L353.292 172.236
L355.159 169.79
L356.874 167.319
L358.436 164.825
L359.844 162.31
L361.097 159.776
L362.196 157.226
L363.138 154.661
L363.924 152.085
L364.553 149.499
L365.026 146.904
L365.341 144.305
L365.498 141.702
L365.498 139.098
L365.341 136.495
L365.026 133.896
L364.553 131.301
L363.924 128.715
L363.138 126.139
L362.196 123.574
L361.097 121.024
L359.844 118.49
L358.436 115.975
L356.874 113.481
L355.159 111.01
L353.292 108.564
L351.273 106.146
L349.105 103.757
L346.788 101.401
L344.323 99.0784
L341.712 96.7923
L338.957 94.5448
L336.058 92.3382
L333.018 90.1745
L329.838 88.0562
L326.521 85.9854
L323.068 83.9642
L319.481 81.9951
L315.763 80.0801
L311.917 78.2215
L307.943 76.4216
L303.847 74.6825
L299.629 73.0065
L295.293 71.3957
L290.842 69.8524
L286.279 68.3787
L281.609 66.9769
L276.833 65.6491
L271.956 64.3975
L266.982 63.2241
L261.915 62.131" style="fill:none;stroke:#000000;stroke-dasharray:1.000000,3.000000;stroke-dashoffset:0.0;stroke-width:0.5;"/>
     </g>
     <g id="text_11">
      <!-- 150° -->
      <g transform="translate(354.499035216 134.3203125)scale(0.1 -0.1)">
       <use xlink:href="#BitstreamVeraSans-Roman-31"/>
       <use x="63.623046875" xlink:href="#BitstreamVeraSans-Roman-35"/>
       <use x="127.24609375" xlink:href="#BitstreamVeraSans-Roman-30"/>
       <use x="190.869140625" xlink:href="#BitstreamVeraSans-Roman-b0"/>
      </g>
     </g>
    </g>
   </g>
   <g id="matplotlib.axis_2">
    <g id="ytick_1">
     <g id="line2d_12">
      <path clip-path="url(#p99d0a42530)" d="
M178.074 221.248
L178.344 220.813
L178.686 220.386
L179.096 219.968
L179.574 219.558
L180.117 219.157
L180.724 218.765
L181.392 218.384
L182.121 218.012
L182.908 217.652
L183.752 217.302
L184.649 216.963
L185.599 216.635
L186.6 216.319
L187.649 216.014
L188.744 215.721
L189.884 215.441
L191.067 215.172
L192.29 214.916
L193.552 214.672
L194.85 214.44
L196.183 214.222
L197.548 214.015
L198.944 213.821
L200.369 213.641
L201.82 213.472
L203.296 213.317
L204.795 213.174
L206.314 213.045
L207.852 212.928
L209.406 212.824
L210.976 212.733
L212.558 212.655
L214.151 212.59
L215.753 212.538
L217.361 212.5
L218.975 212.474
L220.591 212.461
L222.209 212.461
L223.825 212.474
L225.439 212.5
L227.047 212.538
L228.649 212.59
L230.242 212.655
L231.824 212.733
L233.394 212.824
L234.948 212.928
L236.486 213.045
L238.005 213.174
L239.504 213.317
L240.98 213.472
L242.431 213.641
L243.856 213.821
L245.252 214.015
L246.617 214.222
L247.95 214.44
L249.248 214.672
L250.51 214.916
L251.733 215.172
L252.916 215.441
L254.056 215.721
L255.151 216.014
L256.2 216.319
L257.201 216.635
L258.151 216.963
L259.048 217.302
L259.892 217.652
L260.679 218.012
L261.408 218.384
L262.076 218.765
L262.683 219.157
L263.226 219.558
L263.704 219.968
L264.114 220.386
L264.456 220.813
L264.726 221.248" style="fill:none;stroke:#000000;stroke-dasharray:1.000000,3.000000;stroke-dashoffset:0.0;stroke-width:0.5;"/>
     </g>
     <g id="text_12">
      <!-- -75° -->
      <defs>
       <path d="
M8.20312 72.9062
L55.0781 72.9062
L55.0781 68.7031
L28.6094 0
L18.3125 0
L43.2188 64.5938
L8.20312 64.5938
z
" id="BitstreamVeraSans-Roman-37"/>
      </defs>
      <g transform="translate(150.18150435 232.092165826)scale(0.1 -0.1)">
       <use xlink:href="#BitstreamVeraSans-Roman-2d"/>
       <use x="36.083984375" xlink:href="#BitstreamVeraSans-Roman-37"/>
       <use x="99.70703125" xlink:href="#BitstreamVeraSans-Roman-35"/>
       <use x="163.330078125" xlink:href="#BitstreamVeraSans-Roman-b0"/>
      </g>
     </g>
    </g>
    <g id="ytick_2">
     <g id="line2d_13">
      <path clip-path="url(#p99d0a42530)" d="
M137.7 212.886
L138.635 212.139
L139.685 211.416
L140.846 210.717
L142.112 210.041
L143.479 209.389
L144.944 208.761
L146.502 208.156
L148.149 207.574
L149.882 207.015
L151.696 206.478
L153.589 205.964
L155.556 205.472
L157.594 205.001
L159.7 204.552
L161.87 204.125
L164.102 203.718
L166.391 203.331
L168.736 202.966
L171.133 202.62
L173.578 202.294
L176.07 201.987
L178.604 201.7
L181.18 201.432
L183.792 201.183
L186.44 200.952
L189.12 200.74
L191.829 200.547
L194.565 200.371
L197.325 200.213
L200.107 200.074
L202.908 199.952
L205.725 199.847
L208.556 199.76
L211.399 199.691
L214.25 199.639
L217.107 199.604
L219.969 199.587
L222.831 199.587
L225.693 199.604
L228.55 199.639
L231.401 199.691
L234.244 199.76
L237.075 199.847
L239.892 199.952
L242.693 200.074
L245.475 200.213
L248.235 200.371
L250.971 200.547
L253.68 200.74
L256.36 200.952
L259.008 201.183
L261.62 201.432
L264.196 201.7
L266.73 201.987
L269.222 202.294
L271.667 202.62
L274.064 202.966
L276.409 203.331
L278.698 203.718
L280.93 204.125
L283.1 204.552
L285.206 205.001
L287.244 205.472
L289.211 205.964
L291.104 206.478
L292.918 207.015
L294.651 207.574
L296.298 208.156
L297.856 208.761
L299.321 209.389
L300.688 210.041
L301.954 210.717
L303.115 211.416
L304.165 212.139
L305.1 212.886" style="fill:none;stroke:#000000;stroke-dasharray:1.000000,3.000000;stroke-dashoffset:0.0;stroke-width:0.5;"/>
     </g>
     <g id="text_13">
      <!-- -60° -->
      <g transform="translate(109.8078125 222.894333926)scale(0.1 -0.1)">
       <use xlink:href="#BitstreamVeraSans-Roman-2d"/>
       <use x="36.083984375" xlink:href="#BitstreamVeraSans-Roman-36"/>
       <use x="99.70703125" xlink:href="#BitstreamVeraSans-Roman-30"/>
       <use x="163.330078125" xlink:href="#BitstreamVeraSans-Roman-b0"/>
      </g>
     </g>
    </g>
    <g id="ytick_3">
     <g id="line2d_14">
      <path clip-path="url(#p99d0a42530)" d="
M103.03 199.585
L104.847 198.728
L106.788 197.908
L108.845 197.125
L111.015 196.376
L113.291 195.662
L115.669 194.98
L118.144 194.33
L120.71 193.71
L123.365 193.12
L126.103 192.558
L128.921 192.023
L131.814 191.515
L134.78 191.033
L137.814 190.576
L140.913 190.143
L144.074 189.734
L147.294 189.348
L150.569 188.983
L153.896 188.641
L157.272 188.319
L160.695 188.018
L164.16 187.737
L167.667 187.475
L171.211 187.233
L174.79 187.01
L178.402 186.805
L182.042 186.618
L185.71 186.449
L189.402 186.298
L193.116 186.164
L196.849 186.048
L200.598 185.948
L204.361 185.865
L208.136 185.799
L211.919 185.75
L215.709 185.717
L219.503 185.7
L223.297 185.7
L227.091 185.717
L230.881 185.75
L234.664 185.799
L238.439 185.865
L242.202 185.948
L245.951 186.048
L249.684 186.164
L253.398 186.298
L257.09 186.449
L260.758 186.618
L264.398 186.805
L268.01 187.01
L271.589 187.233
L275.133 187.475
L278.64 187.737
L282.105 188.018
L285.528 188.319
L288.904 188.641
L292.231 188.983
L295.506 189.348
L298.726 189.734
L301.887 190.143
L304.986 190.576
L308.02 191.033
L310.986 191.515
L313.879 192.023
L316.697 192.558
L319.435 193.12
L322.09 193.71
L324.656 194.33
L327.131 194.98
L329.509 195.662
L331.785 196.376
L333.955 197.125
L336.012 197.908
L337.953 198.728
L339.77 199.585" style="fill:none;stroke:#000000;stroke-dasharray:1.000000,3.000000;stroke-dashoffset:0.0;stroke-width:0.5;"/>
     </g>
     <g id="text_14">
      <!-- -45° -->
      <defs>
       <path d="
M37.7969 64.3125
L12.8906 25.3906
L37.7969 25.3906
z

M35.2031 72.9062
L47.6094 72.9062
L47.6094 25.3906
L58.0156 25.3906
L58.0156 17.1875
L47.6094 17.1875
L47.6094 0
L37.7969 0
L37.7969 17.1875
L4.89062 17.1875
L4.89062 26.7031
z
" id="BitstreamVeraSans-Roman-34"/>
      </defs>
      <g transform="translate(75.1381373294 208.262696344)scale(0.1 -0.1)">
       <use xlink:href="#BitstreamVeraSans-Roman-2d"/>
       <use x="36.083984375" xlink:href="#BitstreamVeraSans-Roman-34"/>
       <use x="99.70703125" xlink:href="#BitstreamVeraSans-Roman-35"/>
       <use x="163.330078125" xlink:href="#BitstreamVeraSans-Roman-b0"/>
      </g>
     </g>
    </g>
    <g id="ytick_4">
     <g id="line2d_15">
      <path clip-path="url(#p99d0a42530)" d="
M76.4273 182.25
L79.1116 181.511
L81.9019 180.811
L84.7933 180.148
L87.7813 179.52
L90.8614 178.925
L94.0296 178.361
L97.2821 177.827
L100.615 177.321
L104.025 176.842
L107.509 176.389
L111.063 175.96
L114.685 175.554
L118.371 175.171
L122.118 174.809
L125.924 174.468
L129.786 174.146
L133.7 173.844
L137.665 173.56
L141.677 173.293
L145.734 173.044
L149.834 172.811
L153.973 172.594
L158.15 172.393
L162.361 172.207
L166.605 172.036
L170.879 171.879
L175.181 171.736
L179.507 171.607
L183.857 171.492
L188.226 171.39
L192.613 171.302
L197.016 171.226
L201.431 171.163
L205.858 171.113
L210.293 171.075
L214.733 171.05
L219.177 171.038
L223.623 171.038
L228.067 171.05
L232.507 171.075
L236.942 171.113
L241.369 171.163
L245.784 171.226
L250.187 171.302
L254.574 171.39
L258.943 171.492
L263.293 171.607
L267.619 171.736
L271.921 171.879
L276.195 172.036
L280.439 172.207
L284.65 172.393
L288.827 172.594
L292.966 172.811
L297.066 173.044
L301.123 173.293
L305.135 173.56
L309.1 173.844
L313.014 174.146
L316.876 174.468
L320.682 174.809
L324.429 175.171
L328.115 175.554
L331.737 175.96
L335.291 176.389
L338.775 176.842
L342.185 177.321
L345.518 177.827
L348.77 178.361
L351.939 178.925
L355.019 179.52
L358.007 180.148
L360.898 180.811
L363.688 181.511
L366.373 182.25" style="fill:none;stroke:#000000;stroke-dasharray:1.000000,3.000000;stroke-dashoffset:0.0;stroke-width:0.5;"/>
     </g>
     <g id="text_15">
      <!-- -30° -->
      <g transform="translate(48.5351599065 189.194375)scale(0.1 -0.1)">
       <use xlink:href="#BitstreamVeraSans-Roman-2d"/>
       <use x="36.083984375" xlink:href="#BitstreamVeraSans-Roman-33"/>
       <use x="99.70703125" xlink:href="#BitstreamVeraSans-Roman-30"/>
       <use x="163.330078125" xlink:href="#BitstreamVeraSans-Roman-b0"/>
      </g>
     </g>
    </g>
    <g id="ytick_5">
     <g id="line2d_16">
      <path clip-path="url(#p99d0a42530)" d="
M59.704 162.063
L63.0173 161.638
L66.4129 161.237
L69.8883 160.86
L73.4407 160.504
L77.0678 160.169
L80.7669 159.852
L84.5358 159.554
L88.3722 159.272
L92.2736 159.006
L96.2379 158.755
L100.263 158.519
L104.346 158.296
L108.485 158.086
L112.679 157.888
L116.924 157.701
L121.218 157.526
L125.56 157.362
L129.948 157.208
L134.378 157.063
L138.849 156.928
L143.359 156.803
L147.905 156.686
L152.486 156.577
L157.099 156.477
L161.742 156.385
L166.412 156.301
L171.108 156.225
L175.827 156.156
L180.568 156.094
L185.327 156.04
L190.103 155.992
L194.893 155.952
L199.696 155.918
L204.509 155.891
L209.329 155.871
L214.155 155.858
L218.985 155.851
L223.815 155.851
L228.645 155.858
L233.471 155.871
L238.291 155.891
L243.104 155.918
L247.907 155.952
L252.697 155.992
L257.473 156.04
L262.232 156.094
L266.973 156.156
L271.692 156.225
L276.388 156.301
L281.058 156.385
L285.701 156.477
L290.314 156.577
L294.895 156.686
L299.441 156.803
L303.951 156.928
L308.422 157.063
L312.852 157.208
L317.24 157.362
L321.582 157.526
L325.876 157.701
L330.121 157.888
L334.315 158.086
L338.454 158.296
L342.537 158.519
L346.562 158.755
L350.526 159.006
L354.428 159.272
L358.264 159.554
L362.033 159.852
L365.732 160.169
L369.359 160.504
L372.912 160.86
L376.387 161.237
L379.783 161.638
L383.096 162.063" style="fill:none;stroke:#000000;stroke-dasharray:1.000000,3.000000;stroke-dashoffset:0.0;stroke-width:0.5;"/>
     </g>
     <g id="text_16">
      <!-- -15° -->
      <g transform="translate(31.8118291792 166.988844483)scale(0.1 -0.1)">
       <use xlink:href="#BitstreamVeraSans-Roman-2d"/>
       <use x="36.083984375" xlink:href="#BitstreamVeraSans-Roman-31"/>
       <use x="99.70703125" xlink:href="#BitstreamVeraSans-Roman-35"/>
       <use x="163.330078125" xlink:href="#BitstreamVeraSans-Roman-b0"/>
      </g>
     </g>
    </g>
    <g id="ytick_6">
     <g id="line2d_17">
      <path clip-path="url(#p99d0a42530)" d="
M54 140.4
L57.5425 140.4
L61.1568 140.4
L64.8415 140.4
L68.5948 140.4
L72.4151 140.4
L76.3008 140.4
L80.2501 140.4
L84.2614 140.4
L88.3327 140.4
L92.4625 140.4
L96.6488 140.4
L100.89 140.4
L105.184 140.4
L109.529 140.4
L113.923 140.4
L118.364 140.4
L122.85 140.4
L127.379 140.4
L131.95 140.4
L136.56 140.4
L141.207 140.4
L145.89 140.4
L150.605 140.4
L155.352 140.4
L160.127 140.4
L164.93 140.4
L169.757 140.4
L174.607 140.4
L179.477 140.4
L184.366 140.4
L189.271 140.4
L194.19 140.4
L199.121 140.4
L204.062 140.4
L209.01 140.4
L213.964 140.4
L218.921 140.4
L223.879 140.4
L228.836 140.4
L233.79 140.4
L238.738 140.4
L243.679 140.4
L248.61 140.4
L253.529 140.4
L258.434 140.4
L263.323 140.4
L268.193 140.4
L273.043 140.4
L277.87 140.4
L282.673 140.4
L287.448 140.4
L292.195 140.4
L296.91 140.4
L301.593 140.4
L306.24 140.4
L310.85 140.4
L315.421 140.4
L319.95 140.4
L324.436 140.4
L328.877 140.4
L333.271 140.4
L337.616 140.4
L341.91 140.4
L346.151 140.4
L350.337 140.4
L354.467 140.4
L358.539 140.4
L362.55 140.4
L366.499 140.4
L370.385 140.4
L374.205 140.4
L377.959 140.4
L381.643 140.4
L385.258 140.4
L388.8 140.4" style="fill:none;stroke:#000000;stroke-dasharray:1.000000,3.000000;stroke-dashoffset:0.0;stroke-width:0.5;"/>
     </g>
     <g id="text_17">
      <!-- 0° -->
      <g transform="translate(36.2484375 143.159375)scale(0.1 -0.1)">
       <use xlink:href="#BitstreamVeraSans-Roman-30"/>
       <use x="63.623046875" xlink:href="#BitstreamVeraSans-Roman-b0"/>
      </g>
     </g>
    </g>
    <g id="ytick_7">
     <g id="line2d_18">
      <path clip-path="url(#p99d0a42530)" d="
M59.704 118.737
L63.0173 119.162
L66.4129 119.563
L69.8883 119.94
L73.4407 120.296
L77.0678 120.631
L80.7669 120.948
L84.5358 121.246
L88.3722 121.528
L92.2736 121.794
L96.2379 122.045
L100.263 122.281
L104.346 122.504
L108.485 122.714
L112.679 122.912
L116.924 123.099
L121.218 123.274
L125.56 123.438
L129.948 123.592
L134.378 123.737
L138.849 123.872
L143.359 123.997
L147.905 124.114
L152.486 124.223
L157.099 124.323
L161.742 124.415
L166.412 124.499
L171.108 124.575
L175.827 124.644
L180.568 124.706
L185.327 124.76
L190.103 124.808
L194.893 124.848
L199.696 124.882
L204.509 124.909
L209.329 124.929
L214.155 124.942
L218.985 124.949
L223.815 124.949
L228.645 124.942
L233.471 124.929
L238.291 124.909
L243.104 124.882
L247.907 124.848
L252.697 124.808
L257.473 124.76
L262.232 124.706
L266.973 124.644
L271.692 124.575
L276.388 124.499
L281.058 124.415
L285.701 124.323
L290.314 124.223
L294.895 124.114
L299.441 123.997
L303.951 123.872
L308.422 123.737
L312.852 123.592
L317.24 123.438
L321.582 123.274
L325.876 123.099
L330.121 122.912
L334.315 122.714
L338.454 122.504
L342.537 122.281
L346.562 122.045
L350.526 121.794
L354.428 121.528
L358.264 121.246
L362.033 120.948
L365.732 120.631
L369.359 120.296
L372.912 119.94
L376.387 119.563
L379.783 119.162
L383.096 118.737" style="fill:none;stroke:#000000;stroke-dasharray:1.000000,3.000000;stroke-dashoffset:0.0;stroke-width:0.5;"/>
     </g>
     <g id="text_18">
      <!-- 15° -->
      <g transform="translate(36.0290166792 119.329905517)scale(0.1 -0.1)">
       <use xlink:href="#BitstreamVeraSans-Roman-31"/>
       <use x="63.623046875" xlink:href="#BitstreamVeraSans-Roman-35"/>
       <use x="127.24609375" xlink:href="#BitstreamVeraSans-Roman-b0"/>
      </g>
     </g>
    </g>
    <g id="ytick_8">
     <g id="line2d_19">
      <path clip-path="url(#p99d0a42530)" d="
M76.4273 98.55
L79.1116 99.2888
L81.9019 99.9886
L84.7933 100.652
L87.7813 101.28
L90.8614 101.875
L94.0296 102.439
L97.2821 102.973
L100.615 103.479
L104.025 103.958
L107.509 104.411
L111.063 104.84
L114.685 105.246
L118.371 105.629
L122.118 105.991
L125.924 106.332
L129.786 106.654
L133.7 106.956
L137.665 107.24
L141.677 107.507
L145.734 107.756
L149.834 107.989
L153.973 108.206
L158.15 108.407
L162.361 108.593
L166.605 108.764
L170.879 108.921
L175.181 109.064
L179.507 109.193
L183.857 109.308
L188.226 109.41
L192.613 109.498
L197.016 109.574
L201.431 109.637
L205.858 109.687
L210.293 109.725
L214.733 109.75
L219.177 109.762
L223.623 109.762
L228.067 109.75
L232.507 109.725
L236.942 109.687
L241.369 109.637
L245.784 109.574
L250.187 109.498
L254.574 109.41
L258.943 109.308
L263.293 109.193
L267.619 109.064
L271.921 108.921
L276.195 108.764
L280.439 108.593
L284.65 108.407
L288.827 108.206
L292.966 107.989
L297.066 107.756
L301.123 107.507
L305.135 107.24
L309.1 106.956
L313.014 106.654
L316.876 106.332
L320.682 105.991
L324.429 105.629
L328.115 105.246
L331.737 104.84
L335.291 104.411
L338.775 103.958
L342.185 103.479
L345.518 102.973
L348.77 102.439
L351.939 101.875
L355.019 101.28
L358.007 100.652
L360.898 99.9886
L363.688 99.2888
L366.373 98.55" style="fill:none;stroke:#000000;stroke-dasharray:1.000000,3.000000;stroke-dashoffset:0.0;stroke-width:0.5;"/>
     </g>
     <g id="text_19">
      <!-- 30° -->
      <g transform="translate(52.4164099065 97.124375)scale(0.1 -0.1)">
       <use xlink:href="#BitstreamVeraSans-Roman-33"/>
       <use x="63.623046875" xlink:href="#BitstreamVeraSans-Roman-30"/>
       <use x="127.24609375" xlink:href="#BitstreamVeraSans-Roman-b0"/>
      </g>
     </g>
    </g>
    <g id="ytick_9">
     <g id="line2d_20">
      <path clip-path="url(#p99d0a42530)" d="
M103.03 81.2152
L104.847 82.0724
L106.788 82.8921
L108.845 83.6754
L111.015 84.4237
L113.291 85.1381
L115.669 85.8199
L118.144 86.4701
L120.71 87.0899
L123.365 87.6803
L126.103 88.2422
L128.921 88.7767
L131.814 89.2845
L134.78 89.7666
L137.814 90.2237
L140.913 90.6565
L144.074 91.0659
L147.294 91.4524
L150.569 91.8168
L153.896 92.1595
L157.272 92.4811
L160.695 92.7822
L164.16 93.0632
L167.667 93.3246
L171.211 93.5668
L174.79 93.7901
L178.402 93.995
L182.042 94.1817
L185.71 94.3506
L189.402 94.5018
L193.116 94.6356
L196.849 94.7523
L200.598 94.852
L204.361 94.9348
L208.136 95.0009
L211.919 95.0504
L215.709 95.0834
L219.503 95.0998
L223.297 95.0998
L227.091 95.0834
L230.881 95.0504
L234.664 95.0009
L238.439 94.9348
L242.202 94.852
L245.951 94.7523
L249.684 94.6356
L253.398 94.5018
L257.09 94.3506
L260.758 94.1817
L264.398 93.995
L268.01 93.7901
L271.589 93.5668
L275.133 93.3246
L278.64 93.0632
L282.105 92.7822
L285.528 92.4811
L288.904 92.1595
L292.231 91.8168
L295.506 91.4524
L298.726 91.0659
L301.887 90.6565
L304.986 90.2237
L308.02 89.7666
L310.986 89.2845
L313.879 88.7767
L316.697 88.2422
L319.435 87.6803
L322.09 87.0899
L324.656 86.4701
L327.131 85.8199
L329.509 85.1381
L331.785 84.4237
L333.955 83.6754
L336.012 82.8921
L337.953 82.0724
L339.77 81.2152" style="fill:none;stroke:#000000;stroke-dasharray:1.000000,3.000000;stroke-dashoffset:0.0;stroke-width:0.5;"/>
     </g>
     <g id="text_20">
      <!-- 45° -->
      <g transform="translate(78.7459498294 78.0560536562)scale(0.1 -0.1)">
       <use xlink:href="#BitstreamVeraSans-Roman-34"/>
       <use x="63.623046875" xlink:href="#BitstreamVeraSans-Roman-35"/>
       <use x="127.24609375" xlink:href="#BitstreamVeraSans-Roman-b0"/>
      </g>
     </g>
    </g>
    <g id="ytick_10">
     <g id="line2d_21">
      <path clip-path="url(#p99d0a42530)" d="
M137.7 67.9137
L138.635 68.6608
L139.685 69.3841
L140.846 70.0834
L142.112 70.759
L143.479 71.4109
L144.944 72.0393
L146.502 72.6444
L148.149 73.2264
L149.882 73.7855
L151.696 74.322
L153.589 74.8362
L155.556 75.3284
L157.594 75.7988
L159.7 76.2477
L161.87 76.6754
L164.102 77.0823
L166.391 77.4685
L168.736 77.8344
L171.133 78.1802
L173.578 78.5063
L176.07 78.8127
L178.604 79.0999
L181.18 79.3679
L183.792 79.6171
L186.44 79.8476
L189.12 80.0597
L191.829 80.2534
L194.565 80.429
L197.325 80.5866
L200.107 80.7264
L202.908 80.8484
L205.725 80.9528
L208.556 81.0397
L211.399 81.1091
L214.25 81.1611
L217.107 81.1957
L219.969 81.213
L222.831 81.213
L225.693 81.1957
L228.55 81.1611
L231.401 81.1091
L234.244 81.0397
L237.075 80.9528
L239.892 80.8484
L242.693 80.7264
L245.475 80.5866
L248.235 80.429
L250.971 80.2534
L253.68 80.0597
L256.36 79.8476
L259.008 79.6171
L261.62 79.3679
L264.196 79.0999
L266.73 78.8127
L269.222 78.5063
L271.667 78.1802
L274.064 77.8344
L276.409 77.4685
L278.698 77.0823
L280.93 76.6754
L283.1 76.2477
L285.206 75.7988
L287.244 75.3284
L289.211 74.8362
L291.104 74.322
L292.918 73.7855
L294.651 73.2264
L296.298 72.6444
L297.856 72.0393
L299.321 71.4109
L300.688 70.759
L301.954 70.0834
L303.115 69.3841
L304.165 68.6608
L305.1 67.9137" style="fill:none;stroke:#000000;stroke-dasharray:1.000000,3.000000;stroke-dashoffset:0.0;stroke-width:0.5;"/>
     </g>
     <g id="text_21">
      <!-- 60° -->
      <g transform="translate(113.625 63.4244160736)scale(0.1 -0.1)">
       <use xlink:href="#BitstreamVeraSans-Roman-36"/>
       <use x="63.623046875" xlink:href="#BitstreamVeraSans-Roman-30"/>
       <use x="127.24609375" xlink:href="#BitstreamVeraSans-Roman-b0"/>
      </g>
     </g>
    </g>
    <g id="ytick_11">
     <g id="line2d_22">
      <path clip-path="url(#p99d0a42530)" d="
M178.074 59.552
L178.344 59.9866
L178.686 60.4135
L179.096 60.8322
L179.574 61.2423
L180.117 61.6433
L180.724 62.0347
L181.392 62.4163
L182.121 62.7876
L182.908 63.1485
L183.752 63.4985
L184.649 63.8375
L185.599 64.1652
L186.6 64.4814
L187.649 64.7859
L188.744 65.0786
L189.884 65.3593
L191.067 65.6278
L192.29 65.8841
L193.552 66.128
L194.85 66.3595
L196.183 66.5785
L197.548 66.7848
L198.944 66.9785
L200.369 67.1595
L201.82 67.3277
L203.296 67.483
L204.795 67.6256
L206.314 67.7552
L207.852 67.872
L209.406 67.9758
L210.976 68.0667
L212.558 68.1446
L214.151 68.2095
L215.753 68.2615
L217.361 68.3005
L218.975 68.3265
L220.591 68.3395
L222.209 68.3395
L223.825 68.3265
L225.439 68.3005
L227.047 68.2615
L228.649 68.2095
L230.242 68.1446
L231.824 68.0667
L233.394 67.9758
L234.948 67.872
L236.486 67.7552
L238.005 67.6256
L239.504 67.483
L240.98 67.3277
L242.431 67.1595
L243.856 66.9785
L245.252 66.7848
L246.617 66.5785
L247.95 66.3595
L249.248 66.128
L250.51 65.8841
L251.733 65.6278
L252.916 65.3593
L254.056 65.0786
L255.151 64.7859
L256.2 64.4814
L257.201 64.1652
L258.151 63.8375
L259.048 63.4985
L259.892 63.1485
L260.679 62.7876
L261.408 62.4163
L262.076 62.0347
L262.683 61.6433
L263.226 61.2423
L263.704 60.8322
L264.114 60.4135
L264.456 59.9866
L264.726 59.552" style="fill:none;stroke:#000000;stroke-dasharray:1.000000,3.000000;stroke-dashoffset:0.0;stroke-width:0.5;"/>
     </g>
     <g id="text_22">
      <!-- 75° -->
      <g transform="translate(154.12056685 54.2265841736)scale(0.1 -0.1)">
       <use xlink:href="#BitstreamVeraSans-Roman-37"/>
       <use x="63.623046875" xlink:href="#BitstreamVeraSans-Roman-35"/>
       <use x="127.24609375" xlink:href="#BitstreamVeraSans-Roman-b0"/>
      </g>
     </g>
    </g>
   </g>
  </g>
  <g id="text_23">
   <!-- Stripe82 -->
   <defs>
    <path d="
M31.7812 34.625
Q24.75 34.625 20.7188 30.8594
Q16.7031 27.0938 16.7031 20.5156
Q16.7031 13.9219 20.7188 10.1562
Q24.75 6.39062 31.7812 6.39062
Q38.8125 6.39062 42.8594 10.1719
Q46.9219 13.9688 46.9219 20.5156
Q46.9219 27.0938 42.8906 30.8594
Q38.875 34.625 31.7812 34.625
M21.9219 38.8125
Q15.5781 40.375 12.0312 44.7188
Q8.5 49.0781 8.5 55.3281
Q8.5 64.0625 14.7188 69.1406
Q20.9531 74.2188 31.7812 74.2188
Q42.6719 74.2188 48.875 69.1406
Q55.0781 64.0625 55.0781 55.3281
Q55.0781 49.0781 51.5312 44.7188
Q48 40.375 41.7031 38.8125
Q48.8281 37.1562 52.7969 32.3125
Q56.7812 27.4844 56.7812 20.5156
Q56.7812 9.90625 50.3125 4.23438
Q43.8438 -1.42188 31.7812 -1.42188
Q19.7344 -1.42188 13.25 4.23438
Q6.78125 9.90625 6.78125 20.5156
Q6.78125 27.4844 10.7812 32.3125
Q14.7969 37.1562 21.9219 38.8125
M18.3125 54.3906
Q18.3125 48.7344 21.8438 45.5625
Q25.3906 42.3906 31.7812 42.3906
Q38.1406 42.3906 41.7188 45.5625
Q45.3125 48.7344 45.3125 54.3906
Q45.3125 60.0625 41.7188 63.2344
Q38.1406 66.4062 31.7812 66.4062
Q25.3906 66.4062 21.8438 63.2344
Q18.3125 60.0625 18.3125 54.3906" id="BitstreamVeraSans-Roman-38"/>
    <path d="
M53.5156 70.5156
L53.5156 60.8906
Q47.9062 63.5781 42.9219 64.8906
Q37.9375 66.2188 33.2969 66.2188
Q25.25 66.2188 20.875 63.0938
Q16.5 59.9688 16.5 54.2031
Q16.5 49.3594 19.4062 46.8906
Q22.3125 44.4375 30.4219 42.9219
L36.375 41.7031
Q47.4062 39.5938 52.6562 34.2969
Q57.9062 29 57.9062 20.125
Q57.9062 9.51562 50.7969 4.04688
Q43.7031 -1.42188 29.9844 -1.42188
Q24.8125 -1.42188 18.9688 -0.25
Q13.1406 0.921875 6.89062 3.21875
L6.89062 13.375
Q12.8906 10.0156 18.6562 8.29688
Q24.4219 6.59375 29.9844 6.59375
Q38.4219 6.59375 43.0156 9.90625
Q47.6094 13.2344 47.6094 19.3906
Q47.6094 24.75 44.3125 27.7812
Q41.0156 30.8125 33.5 32.3281
L27.4844 33.5
Q16.4531 35.6875 11.5156 40.375
Q6.59375 45.0625 6.59375 53.4219
Q6.59375 63.0938 13.4062 68.6562
Q20.2188 74.2188 32.1719 74.2188
Q37.3125 74.2188 42.625 73.2812
Q47.9531 72.3594 53.5156 70.5156" id="BitstreamVeraSans-Roman-53"/>
    <path d="
M9.42188 54.6875
L18.4062 54.6875
L18.4062 0
L9.42188 0
z

M9.42188 75.9844
L18.4062 75.9844
L18.4062 64.5938
L9.42188 64.5938
z
" id="BitstreamVeraSans-Roman-69"/>
    <path d="
M56.2031 29.5938
L56.2031 25.2031
L14.8906 25.2031
Q15.4844 15.9219 20.4844 11.0625
Q25.4844 6.20312 34.4219 6.20312
Q39.5938 6.20312 44.4531 7.46875
Q49.3125 8.73438 54.1094 11.2812
L54.1094 2.78125
Q49.2656 0.734375 44.1875 -0.34375
Q39.1094 -1.42188 33.8906 -1.42188
Q20.7969 -1.42188 13.1562 6.1875
Q5.51562 13.8125 5.51562 26.8125
Q5.51562 40.2344 12.7656 48.1094
Q20.0156 56 32.3281 56
Q43.3594 56 49.7812 48.8906
Q56.2031 41.7969 56.2031 29.5938
M47.2188 32.2344
Q47.125 39.5938 43.0938 43.9844
Q39.0625 48.3906 32.4219 48.3906
Q24.9062 48.3906 20.3906 44.1406
Q15.875 39.8906 15.1875 32.1719
z
" id="BitstreamVeraSans-Roman-65"/>
    <path d="
M18.3125 70.2188
L18.3125 54.6875
L36.8125 54.6875
L36.8125 47.7031
L18.3125 47.7031
L18.3125 18.0156
Q18.3125 11.3281 20.1406 9.42188
Q21.9688 7.51562 27.5938 7.51562
L36.8125 7.51562
L36.8125 0
L27.5938 0
Q17.1875 0 13.2344 3.875
Q9.28125 7.76562 9.28125 18.0156
L9.28125 47.7031
L2.6875 47.7031
L2.6875 54.6875
L9.28125 54.6875
L9.28125 70.2188
z
" id="BitstreamVeraSans-Roman-74"/>
    <path d="
M41.1094 46.2969
Q39.5938 47.1719 37.8125 47.5781
Q36.0312 48 33.8906 48
Q26.2656 48 22.1875 43.0469
Q18.1094 38.0938 18.1094 28.8125
L18.1094 0
L9.07812 0
L9.07812 54.6875
L18.1094 54.6875
L18.1094 46.1875
Q20.9531 51.1719 25.4844 53.5781
Q30.0312 56 36.5312 56
Q37.4531 56 38.5781 55.875
Q39.7031 55.7656 41.0625 55.5156
z
" id="BitstreamVeraSans-Roman-72"/>
    <path d="
M18.1094 8.20312
L18.1094 -20.7969
L9.07812 -20.7969
L9.07812 54.6875
L18.1094 54.6875
L18.1094 46.3906
Q20.9531 51.2656 25.2656 53.625
Q29.5938 56 35.5938 56
Q45.5625 56 51.7812 48.0938
Q58.0156 40.1875 58.0156 27.2969
Q58.0156 14.4062 51.7812 6.48438
Q45.5625 -1.42188 35.5938 -1.42188
Q29.5938 -1.42188 25.2656 0.953125
Q20.9531 3.32812 18.1094 8.20312
M48.6875 27.2969
Q48.6875 37.2031 44.6094 42.8438
Q40.5312 48.4844 33.4062 48.4844
Q26.2656 48.4844 22.1875 42.8438
Q18.1094 37.2031 18.1094 27.2969
Q18.1094 17.3906 22.1875 11.75
Q26.2656 6.10938 33.4062 6.10938
Q40.5312 6.10938 44.6094 11.75
Q48.6875 17.3906 48.6875 27.2969" id="BitstreamVeraSans-Roman-70"/>
   </defs>
   <g style="fill:#ffa500;" transform="translate(175.2765625 20.956875)scale(0.2 -0.2)">
    <use xlink:href="#BitstreamVeraSans-Roman-53"/>
    <use x="63.4765625" xlink:href="#BitstreamVeraSans-Roman-74"/>
    <use x="102.685546875" xlink:href="#BitstreamVeraSans-Roman-72"/>
    <use x="143.798828125" xlink:href="#BitstreamVeraSans-Roman-69"/>
    <use x="171.58203125" xlink:href="#BitstreamVeraSans-Roman-70"/>
    <use x="235.05859375" xlink:href="#BitstreamVeraSans-Roman-65"/>
    <use x="296.58203125" xlink:href="#BitstreamVeraSans-Roman-38"/>
    <use x="360.205078125" xlink:href="#BitstreamVeraSans-Roman-32"/>
   </g>
  </g>
  <g id="text_24">
   <!-- $-50\leq RA(deg)\leq 59$ -->
   <defs>
    <path d="
M10.2031 23
Q9.375 23 8.82812 23.625
Q8.29688 24.2656 8.29688 25
Q8.29688 25.7344 8.82812 26.3594
Q9.375 27 10.2031 27
L67.5781 27
Q68.3594 27 68.875 26.3594
Q69.3906 25.7344 69.3906 25
Q69.3906 24.2656 68.875 23.625
Q68.3594 23 67.5781 23
z
" id="Cmsy10-a1"/>
    <path d="
M1.42188 -14.3125
Q1.42188 -11.8594 3.09375 -10.0312
Q4.78125 -8.20312 7.17188 -8.20312
Q8.79688 -8.20312 9.89062 -9.20312
Q10.9844 -10.2031 10.9844 -11.8125
Q10.9844 -13.625 9.95312 -15.0625
Q8.9375 -16.5 7.32812 -17.0938
Q10.0156 -17.9219 15.7188 -17.9219
Q20.3125 -17.9219 24.125 -14.375
Q27.9375 -10.8438 29.1094 -6.20312
L31.9844 5.51562
Q26.5625 0 20.7031 0
Q16.4062 0 13.3438 2.1875
Q10.2969 4.39062 8.6875 8.04688
Q7.07812 11.7188 7.07812 15.8281
Q7.07812 20.4062 8.95312 25.4375
Q10.8438 30.4688 14.2344 34.7656
Q17.625 39.0625 22.0156 41.625
Q26.4219 44.1875 31.2969 44.1875
Q34.2344 44.1875 36.5781 42.5781
Q38.9219 40.9688 40.2812 38.2812
Q41.2656 42.1875 44.5781 42.1875
Q45.8438 42.1875 46.7188 41.4219
Q47.6094 40.6719 47.6094 39.4062
Q47.6094 39.1094 47.5781 38.9531
Q47.5625 38.8125 47.5156 38.625
L36.0781 -6.78125
Q35.2969 -9.90625 33.2031 -12.5
Q31.1094 -15.0938 28.2656 -16.8281
Q25.4375 -18.5625 22.0625 -19.5312
Q18.7031 -20.5156 15.5781 -20.5156
Q9.85938 -20.5156 5.64062 -19.4062
Q1.42188 -18.3125 1.42188 -14.3125
M20.9062 2.59375
Q27.2969 2.59375 33.5 11.375
L39.0156 33.2031
Q38.3281 36.6719 36.2812 39.1406
Q34.2344 41.6094 31.1094 41.6094
Q27.7812 41.6094 24.8281 38.8906
Q21.875 36.1875 19.9219 32.4219
Q18.0625 28.8125 16.3281 22.0469
Q14.5938 15.2812 14.5938 11.375
Q14.5938 7.95312 16.1562 5.26562
Q17.7188 2.59375 20.9062 2.59375" id="Cmmi10-67"/>
    <path d="
M8.6875 11.375
Q9.71875 8.45312 11.8438 6.04688
Q13.9688 3.65625 16.875 2.3125
Q19.7812 0.984375 22.9062 0.984375
Q30.125 0.984375 32.8594 6.59375
Q35.5938 12.2031 35.5938 20.2188
Q35.5938 23.6875 35.4688 26.0469
Q35.3594 28.4219 34.8125 30.6094
Q33.8906 34.125 31.5625 36.7656
Q29.25 39.4062 25.875 39.4062
Q22.5156 39.4062 20.0938 38.375
Q17.6719 37.3594 16.1562 35.9844
Q14.6562 34.625 13.4844 33.1094
Q12.3125 31.5938 12.0156 31.5
L10.8906 31.5
Q10.6406 31.5 10.2656 31.8125
Q9.90625 32.125 9.90625 32.4219
L9.90625 65.8281
Q9.90625 66.0625 10.2188 66.3281
Q10.5469 66.6094 10.8906 66.6094
L11.1875 66.6094
Q17.9219 63.375 25.4844 63.375
Q32.9062 63.375 39.7969 66.6094
L40.0938 66.6094
Q40.4375 66.6094 40.7188 66.3594
Q41.0156 66.1094 41.0156 65.8281
L41.0156 64.8906
Q41.0156 64.4062 40.8281 64.4062
Q37.4062 59.8594 32.25 57.3125
Q27.0938 54.7812 21.5781 54.7812
Q17.5781 54.7812 13.375 55.9062
L13.375 37.0156
Q16.7031 39.7031 19.3125 40.8438
Q21.9219 42 25.9844 42
Q31.5 42 35.8594 38.8125
Q40.2344 35.6406 42.5781 30.5312
Q44.9219 25.4375 44.9219 20.125
Q44.9219 14.1094 41.9688 8.98438
Q39.0156 3.85938 33.9375 0.828125
Q28.8594 -2.20312 22.9062 -2.20312
Q17.9688 -2.20312 13.8438 0.328125
Q9.71875 2.875 7.34375 7.17188
Q4.98438 11.4688 4.98438 16.3125
Q4.98438 18.5625 6.4375 19.9688
Q7.90625 21.3906 10.1094 21.3906
Q12.3125 21.3906 13.7969 19.9375
Q15.2812 18.5 15.2812 16.3125
Q15.2812 14.1562 13.7969 12.6719
Q12.3125 11.1875 10.1094 11.1875
Q9.76562 11.1875 9.32812 11.25
Q8.89062 11.3281 8.6875 11.375" id="Cmr10-35"/>
    <path d="
M11.2812 4.20312
Q14.0156 0.984375 20.7969 0.984375
Q24.6094 0.984375 27.9062 3.5625
Q31.2031 6.15625 33.0156 9.90625
Q35.1094 14.1562 35.6875 18.9688
Q36.2812 23.7812 36.2812 30.9062
Q34.5781 26.8594 31.375 24.2656
Q28.1719 21.6875 24.0312 21.6875
Q18.2188 21.6875 13.6406 24.8281
Q9.07812 27.9844 6.64062 33.125
Q4.20312 38.2812 4.20312 44.0938
Q4.20312 50.0938 6.9375 55.2969
Q9.67188 60.5 14.5 63.5469
Q19.3438 66.6094 25.4844 66.6094
Q31.5469 66.6094 35.625 63.3125
Q39.7031 60.0156 41.8438 54.8125
Q44 49.6094 44.8438 43.7969
Q45.7031 37.9844 45.7031 32.3281
Q45.7031 24.6094 42.875 16.5781
Q40.0469 8.54688 34.4062 3.17188
Q28.7656 -2.20312 20.7969 -2.20312
Q14.8906 -2.20312 10.7812 0.578125
Q6.6875 3.375 6.6875 8.98438
Q6.6875 11.0312 8.07812 12.4219
Q9.46875 13.8125 11.5312 13.8125
Q13.5312 13.8125 14.9219 12.4219
Q16.3125 11.0312 16.3125 8.98438
Q16.3125 7.03125 14.8906 5.60938
Q13.4844 4.20312 11.5312 4.20312
z

M24.4219 24.3125
Q28.5156 24.3125 31.125 27.0625
Q33.7344 29.8281 34.9062 33.9219
Q36.0781 38.0312 36.0781 42.0938
L36.0781 44
L36.0781 44.3906
Q36.0781 51.9062 33.875 57.8125
Q31.6875 63.7188 25.4844 63.7188
Q21.5312 63.7188 19.0625 61.9844
Q16.6094 60.25 15.4375 57.375
Q14.2656 54.5 13.9375 51.2188
Q13.625 47.9531 13.625 44.0938
Q13.625 38.4219 14.1562 34.4219
Q14.7031 30.4219 17.0938 27.3594
Q19.4844 24.3125 24.4219 24.3125" id="Cmr10-39"/>
    <path d="
M31 -24.8125
Q25.4375 -20.4062 21.4062 -14.7188
Q17.3906 -9.03125 14.8125 -2.57812
Q12.25 3.85938 10.9844 10.8906
Q9.71875 17.9219 9.71875 25
Q9.71875 32.1719 10.9844 39.2031
Q12.25 46.2344 14.8594 52.7344
Q17.4844 59.2344 21.5312 64.8906
Q25.5938 70.5625 31 74.8125
Q31 75 31.5 75
L32.4219 75
Q32.7188 75 32.9531 74.7344
Q33.2031 74.4688 33.2031 74.125
Q33.2031 73.6875 33.0156 73.4844
Q28.125 68.7031 24.875 63.2344
Q21.625 57.7656 19.6406 51.5781
Q17.6719 45.4062 16.7969 38.7812
Q15.9219 32.1719 15.9219 25
Q15.9219 -6.78125 32.9062 -23.2969
Q33.2031 -23.5781 33.2031 -24.125
Q33.2031 -24.3594 32.9375 -24.6719
Q32.6719 -25 32.4219 -25
L31.5 -25
Q31 -25 31 -24.8125" id="Cmr10-28"/>
    <path d="
M6.5 -25
Q5.60938 -25 5.60938 -24.125
Q5.60938 -23.6875 5.8125 -23.4844
Q22.9062 -6.78125 22.9062 25
Q22.9062 56.7812 6 73.2969
Q5.60938 73.5312 5.60938 74.125
Q5.60938 74.4688 5.875 74.7344
Q6.15625 75 6.5 75
L7.42188 75
Q7.71875 75 7.90625 74.8125
Q15.0938 69.1406 19.875 61.0312
Q24.6562 52.9375 26.875 43.75
Q29.1094 34.5781 29.1094 25
Q29.1094 17.9219 27.9062 11.0625
Q26.7031 4.20312 24.0938 -2.45312
Q21.4844 -9.125 17.4844 -14.7656
Q13.4844 -20.4062 7.90625 -24.8125
Q7.71875 -25 7.42188 -25
z
" id="Cmr10-29"/>
    <path d="
M4.89062 0
Q3.90625 0 3.90625 1.3125
Q3.95312 1.5625 4.09375 2.17188
Q4.25 2.78125 4.51562 3.14062
Q4.78125 3.51562 5.17188 3.51562
Q11.2812 3.51562 13.7188 4.20312
Q14.9844 4.64062 15.5781 6.89062
L29.2969 61.8125
Q29.5 62.7969 29.5 63.1875
Q29.5 64.2656 28.3281 64.4062
Q26.4219 64.7969 21.0938 64.7969
Q20.125 64.7969 20.125 66.1094
Q20.1719 66.3594 20.3125 66.9688
Q20.4531 67.5781 20.7188 67.9375
Q21 68.3125 21.3906 68.3125
L51.7031 68.3125
Q55.3281 68.3125 59.2344 67.4844
Q63.1406 66.6562 66.4062 64.875
Q69.6719 63.0938 71.7656 60.125
Q73.875 57.1719 73.875 53.2188
Q73.875 48.1875 70.5469 44.2344
Q67.2344 40.2812 62.1562 37.625
Q57.0781 34.9688 52.2969 33.8906
Q56.2031 32.4688 58.6875 29.3594
Q61.1875 26.2656 61.1875 22.2188
Q61.1875 21.6875 61.1562 21.4062
Q61.1406 21.1406 61.0781 20.7969
L60.2969 11.9219
Q60.2031 9.96875 60.1094 8.59375
Q60.0156 7.23438 60.0156 6.39062
Q60.0156 3.65625 60.8125 2.01562
Q61.625 0.390625 64.0156 0.390625
Q67.1406 0.390625 69.5 3.29688
Q71.875 6.20312 72.6094 9.625
Q73.0469 10.5 73.5781 10.5
L74.5156 10.5
Q75.4844 10.5 75.4844 9.1875
Q74.75 6.29688 73.1562 3.70312
Q71.5781 1.125 69.1562 -0.53125
Q66.75 -2.20312 63.9219 -2.20312
Q58.0625 -2.20312 53.9375 0.40625
Q49.8125 3.03125 49.8125 8.59375
Q49.8125 10.6875 50.2031 12.3125
L52.3906 21.1875
Q52.7812 22.4062 52.7812 24.0312
Q52.7812 28.1719 49.9688 30.5312
Q47.1719 32.9062 42.9219 32.9062
L30.6094 32.9062
L24.0312 6.5
Q23.7812 5.67188 23.7812 5.07812
Q23.7812 4.04688 25 3.90625
Q26.9062 3.51562 32.1719 3.51562
Q33.2031 3.51562 33.2031 2.20312
Q32.8594 0.78125 32.6562 0.390625
Q32.4688 0 31.5 0
z

M31.2031 35.5
L42.2812 35.5
Q53.1719 35.5 58.6875 41.0156
Q61.2344 43.5625 62.7188 47.4844
Q64.2031 51.4219 64.2031 55.3281
Q64.2031 59.0312 62.0312 61.125
Q59.8594 63.2344 56.6562 64.0156
Q53.4688 64.7969 49.6094 64.7969
L42.9219 64.7969
Q40.1875 64.7969 39.2969 64.3281
Q38.4219 63.875 37.7031 61.375
z
" id="Cmmi10-52"/>
    <path d="
M25 -2.20312
Q12.75 -2.20312 8.32812 7.875
Q3.90625 17.9688 3.90625 31.8906
Q3.90625 40.5781 5.48438 48.2344
Q7.07812 55.9062 11.7812 61.25
Q16.5 66.6094 25 66.6094
Q31.5938 66.6094 35.7812 63.375
Q39.9844 60.1562 42.1875 55.0469
Q44.3906 49.9531 45.1875 44.1094
Q46 38.2812 46 31.8906
Q46 23.2969 44.4062 15.7969
Q42.8281 8.29688 38.1875 3.04688
Q33.5469 -2.20312 25 -2.20312
M25 0.390625
Q30.5625 0.390625 33.2969 6.09375
Q36.0312 11.8125 36.6719 18.75
Q37.3125 25.6875 37.3125 33.5
Q37.3125 41.0156 36.6719 47.3594
Q36.0312 53.7188 33.3125 58.8594
Q30.6094 64.0156 25 64.0156
Q19.3438 64.0156 16.6094 58.8281
Q13.875 53.6562 13.2344 47.3281
Q12.5938 41.0156 12.5938 33.5
Q12.5938 27.9375 12.8594 23
Q13.1406 18.0625 14.3125 12.8125
Q15.4844 7.5625 18.0938 3.96875
Q20.7031 0.390625 25 0.390625" id="Cmr10-30"/>
    <path d="
M20.125 -1.125
Q15.3281 -1.125 11.7344 1.35938
Q8.15625 3.85938 6.26562 8.07812
Q4.39062 12.3125 4.39062 17
Q4.39062 24.125 7.98438 30.3906
Q11.5781 36.6719 17.7188 40.4219
Q23.875 44.1875 30.9062 44.1875
Q35.2031 44.1875 38.4062 41.9688
Q41.6094 39.75 41.6094 35.5938
Q41.6094 29.8281 37.0156 27.0156
Q32.4219 24.2188 26.6562 23.5625
Q20.9062 22.9062 13.9219 22.9062
L13.625 22.9062
Q12.0156 16.9375 12.0156 12.7031
Q12.0156 8.25 14.0625 4.875
Q16.1094 1.51562 20.3125 1.51562
Q26.2656 1.51562 31.75 4.25
Q37.25 6.98438 40.7188 11.8125
Q41.0156 12.1094 41.5 12.1094
Q42 12.1094 42.5 11.5469
Q43.0156 10.9844 43.0156 10.5
Q43.0156 10.1094 42.8281 9.90625
Q39.1562 4.78125 32.9531 1.82812
Q26.7656 -1.125 20.125 -1.125
M14.2031 25.4844
Q20.0156 25.4844 24.9531 26.0156
Q29.8906 26.5625 33.8906 28.7344
Q37.8906 30.9062 37.8906 35.5
Q37.8906 37.3594 36.8594 38.75
Q35.8438 40.1406 34.2031 40.875
Q32.5625 41.6094 30.8125 41.6094
Q26.5625 41.6094 23.1719 39.3125
Q19.7812 37.0156 17.5781 33.3281
Q15.375 29.6406 14.2031 25.4844" id="Cmmi10-65"/>
    <path d="
M17.3906 -1.125
Q11.0781 -1.125 7.4375 3.64062
Q3.8125 8.40625 3.8125 14.8906
Q3.8125 21.2969 7.125 28.1719
Q10.4531 35.0625 16.0938 39.625
Q21.7344 44.1875 28.2188 44.1875
Q31.1562 44.1875 33.5156 42.5469
Q35.8906 40.9219 37.2031 38.1875
L42.8281 60.5
Q43.2188 62.2031 43.3125 63.1875
Q43.3125 64.7969 36.8125 64.7969
Q35.7969 64.7969 35.7969 66.1094
Q35.8438 66.3594 36.0156 66.9844
Q36.1875 67.625 36.4531 67.9688
Q36.7188 68.3125 37.2031 68.3125
L50.6875 69.3906
Q51.9062 69.3906 51.9062 68.1094
L37.5 10.5938
Q36.8125 8.9375 36.8125 5.8125
Q36.8125 1.51562 39.7031 1.51562
Q42.8281 1.51562 44.4531 5.48438
Q46.0938 9.46875 47.2188 14.7031
Q47.4062 15.2812 48 15.2812
L49.2188 15.2812
Q49.6094 15.2812 49.8438 14.9375
Q50.0938 14.5938 50.0938 14.3125
Q48.3438 7.32812 46.2656 3.09375
Q44.1875 -1.125 39.5 -1.125
Q36.1406 -1.125 33.5469 0.84375
Q30.9531 2.82812 30.3281 6.10938
Q23.875 -1.125 17.3906 -1.125
M17.4844 1.51562
Q21.0938 1.51562 24.4844 4.21875
Q27.875 6.9375 30.3281 10.5938
Q30.4219 10.6875 30.4219 10.9844
L35.8906 33.0156
Q35.2969 36.5312 33.2969 39.0625
Q31.2969 41.6094 27.9844 41.6094
Q24.6094 41.6094 21.7031 38.8438
Q18.7969 36.0781 16.7969 32.3281
Q14.8438 28.3281 13.0625 21.3438
Q11.2812 14.3594 11.2812 10.5
Q11.2812 7.03125 12.7656 4.26562
Q14.2656 1.51562 17.4844 1.51562" id="Cmmi10-64"/>
    <path d="
M4.5 0
Q3.51562 0 3.51562 1.3125
Q3.90625 3.51562 4.78125 3.51562
Q8.84375 3.51562 11.7969 5.125
Q14.75 6.73438 16.8906 10.1094
Q17.0938 10.2969 17.0938 10.2969
L52.7812 70.5156
Q53.5625 71.5781 54.6875 71.5781
L56 71.5781
Q56.2969 71.5781 56.5938 71.4531
Q56.8906 71.3438 57.1094 71.0625
Q57.3281 70.7969 57.3281 70.5156
L63.375 5.90625
Q63.375 5.46875 63.8125 4.59375
Q64.7969 3.51562 71.2969 3.51562
Q72.3125 3.51562 72.3125 2.20312
Q71.9688 0.875 71.75 0.4375
Q71.5312 0 70.6094 0
L45.6094 0
Q44.6719 0 44.6719 1.3125
Q45.2188 3.51562 46 3.51562
Q53.9062 3.51562 54.3906 6.20312
L52.875 22.7031
L28.2188 22.7031
L20.2188 9.28125
Q19.4844 8.20312 19.4844 6.78125
Q19.4844 5.03125 21.1719 4.26562
Q22.8594 3.51562 24.9062 3.51562
Q25.875 3.51562 25.875 2.20312
Q25.5312 0.78125 25.3281 0.390625
Q25.1406 0 24.2188 0
z

M30.1719 26.2188
L52.4844 26.2188
L49.5156 58.5938
z
" id="Cmmi10-41"/>
    <path d="
M10.2031 -13.7188
Q9.375 -13.7188 8.82812 -13.0781
Q8.29688 -12.4531 8.29688 -11.7188
Q8.29688 -10.8906 8.82812 -10.2969
Q9.375 -9.71875 10.2031 -9.71875
L67.5781 -9.71875
Q68.3594 -9.71875 68.875 -10.2969
Q69.3906 -10.8906 69.3906 -11.7188
Q69.3906 -12.4531 68.875 -13.0781
Q68.3594 -13.7188 67.5781 -13.7188
z

M9.28125 33.0156
Q8.29688 33.2969 8.29688 34.7188
Q8.29688 35.9844 9.625 36.5312
L66.7031 63.4844
Q66.8906 63.625 67.3906 63.625
Q68.2188 63.625 68.7969 63.0312
Q69.3906 62.4531 69.3906 61.625
Q69.3906 60.2969 68.2188 59.8125
L14.9844 34.7188
L68.5 9.42188
Q69.3906 8.9375 69.3906 7.71875
Q69.3906 6.84375 68.7969 6.28125
Q68.2188 5.71875 67.3906 5.71875
Q66.8906 5.71875 66.7031 5.90625
z
" id="Cmsy10-2219"/>
   </defs>
   <g transform="translate(281.75 34.56)scale(0.1 -0.1)">
    <use xlink:href="#Cmsy10-a1"/>
    <use transform="translate(77.685546875 0.0)" xlink:href="#Cmr10-35"/>
    <use transform="translate(127.685546875 0.0)" xlink:href="#Cmr10-30"/>
    <use transform="translate(195.244140625 0.0)" xlink:href="#Cmsy10-2219"/>
    <use transform="translate(273.880859375 0.0)" xlink:href="#Cmmi10-52"/>
    <use transform="translate(349.759765625 0.0)" xlink:href="#Cmmi10-41"/>
    <use transform="translate(424.759765625 0.0)" xlink:href="#Cmr10-28"/>
    <use transform="translate(463.578125 0.0)" xlink:href="#Cmmi10-64"/>
    <use transform="translate(515.580078125 0.0)" xlink:href="#Cmmi10-65"/>
    <use transform="translate(562.064453125 0.0)" xlink:href="#Cmmi10-67"/>
    <use transform="translate(609.76953125 0.0)" xlink:href="#Cmr10-29"/>
    <use transform="translate(666.146484375 0.0)" xlink:href="#Cmsy10-2219"/>
    <use transform="translate(744.783203125 0.0)" xlink:href="#Cmr10-35"/>
    <use transform="translate(794.783203125 0.0)" xlink:href="#Cmr10-39"/>
   </g>
  </g>
  <g id="text_25">
   <!-- $-1.25\leq Dec(deg)\leq 1.25$ -->
   <defs>
    <path d="
M4.98438 0
L4.98438 2.6875
Q4.98438 2.9375 5.17188 3.21875
L20.7031 20.4062
Q24.2188 24.2188 26.4062 26.7969
Q28.6094 29.3906 30.75 32.7656
Q32.9062 36.1406 34.1562 39.625
Q35.4062 43.1094 35.4062 47.0156
Q35.4062 51.125 33.8906 54.8594
Q32.375 58.5938 29.375 60.8438
Q26.375 63.0938 22.125 63.0938
Q17.7812 63.0938 14.3125 60.4688
Q10.8438 57.8594 9.42188 53.7188
Q9.8125 53.8125 10.5 53.8125
Q12.75 53.8125 14.3281 52.2969
Q15.9219 50.7812 15.9219 48.3906
Q15.9219 46.0938 14.3281 44.5
Q12.75 42.9219 10.5 42.9219
Q8.15625 42.9219 6.5625 44.5469
Q4.98438 46.1875 4.98438 48.3906
Q4.98438 52.1562 6.39062 55.4375
Q7.8125 58.7344 10.4688 61.2969
Q13.1406 63.875 16.4844 65.2344
Q19.8281 66.6094 23.5781 66.6094
Q29.2969 66.6094 34.2188 64.1875
Q39.1562 61.7656 42.0312 57.3438
Q44.9219 52.9375 44.9219 47.0156
Q44.9219 42.6719 43.0156 38.7656
Q41.1094 34.8594 38.125 31.6562
Q35.1562 28.4688 30.5156 24.4062
Q25.875 20.3594 24.4219 19
L13.0938 8.10938
L22.7031 8.10938
Q29.7812 8.10938 34.5469 8.21875
Q39.3125 8.34375 39.5938 8.59375
Q40.7656 9.85938 42 17.8281
L44.9219 17.8281
L42.0938 0
z
" id="Cmr10-32"/>
    <path d="
M9.28125 0
L9.28125 3.51562
Q21.7812 3.51562 21.7812 6.6875
L21.7812 59.1875
Q16.6094 56.6875 8.6875 56.6875
L8.6875 60.2031
Q20.9531 60.2031 27.2031 66.6094
L28.6094 66.6094
Q28.9531 66.6094 29.2656 66.3281
Q29.5938 66.0625 29.5938 65.7188
L29.5938 6.6875
Q29.5938 3.51562 42.0938 3.51562
L42.0938 0
z
" id="Cmr10-31"/>
    <path d="
M4.89062 0
Q3.90625 0 3.90625 1.3125
Q3.95312 1.5625 4.09375 2.17188
Q4.25 2.78125 4.51562 3.14062
Q4.78125 3.51562 5.17188 3.51562
Q11.2812 3.51562 13.7188 4.20312
Q14.9844 4.64062 15.5781 6.89062
L29.2969 61.8125
Q29.5 62.7969 29.5 63.1875
Q29.5 64.2656 28.3281 64.4062
Q26.4219 64.7969 21.0938 64.7969
Q20.125 64.7969 20.125 66.1094
Q20.1719 66.3594 20.3125 66.9688
Q20.4531 67.5781 20.7188 67.9375
Q21 68.3125 21.3906 68.3125
L57.3281 68.3125
Q64.3125 68.3125 69.5312 64.9219
Q74.75 61.5312 77.5312 55.7812
Q80.3281 50.0469 80.3281 43.1094
Q80.3281 35.4531 77.1406 27.7812
Q73.9688 20.125 68.25 13.7656
Q62.5469 7.42188 55.2188 3.70312
Q47.9062 0 40.1875 0
z

M23.5781 4.29688
Q23.5781 3.51562 27 3.51562
L38.625 3.51562
Q44.1875 3.51562 49.3594 5.8125
Q54.5469 8.10938 58.5938 12.1094
Q62.3594 15.875 65.2344 21.9688
Q68.1094 28.0781 69.7031 34.7188
Q71.2969 41.3594 71.2969 46.9219
Q71.2969 50.9844 70.0938 54.25
Q68.8906 57.5156 66.7188 59.8594
Q64.5469 62.2031 61.2812 63.5
Q58.0156 64.7969 53.9062 64.7969
L42.9219 64.7969
Q40.1875 64.7969 39.2969 64.3281
Q38.4219 63.875 37.7031 61.375
L24.0312 6.5
Q23.5781 5.28125 23.5781 4.29688" id="Cmmi10-44"/>
    <path d="
M11.7188 11.9219
Q11.7188 7.5625 13.9375 4.53125
Q16.1562 1.51562 20.3125 1.51562
Q26.2656 1.51562 31.75 4.25
Q37.25 6.98438 40.7188 11.8125
Q41.0156 12.1094 41.5 12.1094
Q42 12.1094 42.5 11.5469
Q43.0156 10.9844 43.0156 10.5
Q43.0156 10.1094 42.8281 9.90625
Q39.1562 4.78125 32.9531 1.82812
Q26.7656 -1.125 20.125 -1.125
Q15.3281 -1.125 11.6719 1.14062
Q8.01562 3.42188 6 7.21875
Q4 11.0312 4 15.8281
Q4 22.5625 7.76562 29.2031
Q11.5312 35.8438 17.7812 40.0156
Q24.0312 44.1875 30.9062 44.1875
Q35.4062 44.1875 38.9844 42.0156
Q42.5781 39.8438 42.5781 35.5938
Q42.5781 32.8594 40.9844 30.9219
Q39.4062 29 36.7188 29
Q35.1094 29 34 30
Q32.9062 31 32.9062 32.625
Q32.9062 34.9688 34.6094 36.625
Q36.3281 38.2812 38.625 38.2812
L38.8125 38.2812
Q37.6406 39.9844 35.4219 40.7969
Q33.2031 41.6094 30.8125 41.6094
Q24.9531 41.6094 20.5469 36.5938
Q16.1562 31.5938 13.9375 24.625
Q11.7188 17.6719 11.7188 11.9219" id="Cmmi10-63"/>
    <path d="
M8.40625 5.51562
Q8.40625 7.76562 10.0625 9.375
Q11.7188 10.9844 13.9219 10.9844
Q15.2812 10.9844 16.5938 10.25
Q17.9219 9.51562 18.6562 8.20312
Q19.3906 6.89062 19.3906 5.51562
Q19.3906 3.32812 17.7656 1.65625
Q16.1562 0 13.9219 0
Q11.7188 0 10.0625 1.65625
Q8.40625 3.32812 8.40625 5.51562" id="Cmmi10-3a"/>
   </defs>
   <g transform="translate(272.8 46.08)scale(0.1 -0.1)">
    <use xlink:href="#Cmsy10-a1"/>
    <use transform="translate(77.685546875 0.0)" xlink:href="#Cmr10-31"/>
    <use transform="translate(127.685546875 0.0)" xlink:href="#Cmmi10-3a"/>
    <use transform="translate(156.228515625 0.0)" xlink:href="#Cmr10-32"/>
    <use transform="translate(206.228515625 0.0)" xlink:href="#Cmr10-35"/>
    <use transform="translate(273.787109375 0.0)" xlink:href="#Cmsy10-2219"/>
    <use transform="translate(352.423828125 0.0)" xlink:href="#Cmmi10-44"/>
    <use transform="translate(435.138671875 0.0)" xlink:href="#Cmmi10-65"/>
    <use transform="translate(481.623046875 0.0)" xlink:href="#Cmmi10-63"/>
    <use transform="translate(524.8359375 0.0)" xlink:href="#Cmr10-28"/>
    <use transform="translate(563.654296875 0.0)" xlink:href="#Cmmi10-64"/>
    <use transform="translate(615.65625 0.0)" xlink:href="#Cmmi10-65"/>
    <use transform="translate(662.140625 0.0)" xlink:href="#Cmmi10-67"/>
    <use transform="translate(709.845703125 0.0)" xlink:href="#Cmr10-29"/>
    <use transform="translate(766.22265625 0.0)" xlink:href="#Cmsy10-2219"/>
    <use transform="translate(844.859375 0.0)" xlink:href="#Cmr10-31"/>
    <use transform="translate(894.859375 0.0)" xlink:href="#Cmmi10-3a"/>
    <use transform="translate(923.40234375 0.0)" xlink:href="#Cmr10-32"/>
    <use transform="translate(973.40234375 0.0)" xlink:href="#Cmr10-35"/>
   </g>
  </g>
 </g>
 <defs>
  <clipPath id="p99d0a42530">
   <path d="
M221.4 224.1
C265.795 224.1 308.378 215.281 339.77 199.585
C371.162 183.889 388.8 162.597 388.8 140.4
C388.8 118.203 371.162 96.9112 339.77 81.2152
C308.378 65.5192 265.795 56.7 221.4 56.7
C177.005 56.7 134.422 65.5192 103.03 81.2152
C71.6383 96.9112 54 118.203 54 140.4
C54 162.597 71.6383 183.889 103.03 199.585
C134.422 215.281 177.005 224.1 221.4 224.1
z
"/>
  </clipPath>
 </defs>
</svg>
